<svg width="242" height="35" viewBox="0 0 242 35" fill="none" xmlns="http://www.w3.org/2000/svg">
<g clip-path="url(#clip0_9_1299)">
<path fill-rule="evenodd" clip-rule="evenodd" d="M0 17.5962C0 26.2958 6.3184 33.53 14.5821 34.9969V22.3587H10.2074V17.4985H14.5821V13.6094C14.5821 9.23481 17.4008 6.80544 21.3875 6.80544C22.6503 6.80544 24.0123 6.99938 25.2751 7.19333V11.6656H23.0396C20.9005 11.6656 20.4149 12.7345 20.4149 14.0965V17.4985H25.0811L24.3039 22.3587H20.4149V34.9969C28.6785 33.53 34.9969 26.2973 34.9969 17.5962C34.9969 7.91805 27.1226 0 17.4985 0C7.87431 0 0 7.91805 0 17.5962Z" fill="white"/>
</g>
<g clip-path="url(#clip1_9_1299)">
<path d="M110.363 0.0090332C106.593 0.0090332 103.508 3.09429 103.508 6.86413V28.1367C103.508 31.9065 106.593 34.9907 110.363 34.9907H131.636C135.406 34.9907 138.49 31.9065 138.49 28.1367V6.86413C138.49 3.09436 135.406 0.0090332 131.636 0.0090332H110.363ZM112.087 5.78171C113.895 5.78171 115.008 6.96831 115.043 8.52809C115.043 10.0534 113.895 11.2734 112.052 11.2734H112.018C110.245 11.2734 109.099 10.0535 109.099 8.52809C109.099 6.96835 110.28 5.78171 112.087 5.78171H112.087ZM127.664 13.0719C131.14 13.0719 133.746 15.344 133.746 20.2265V29.3415H128.463V20.8377C128.463 18.7008 127.698 17.2428 125.787 17.2428C124.327 17.2428 123.457 18.2255 123.075 19.1748C122.936 19.5144 122.901 19.9887 122.901 20.4638V29.3415H117.618C117.618 29.3415 117.688 14.9363 117.618 13.4447H122.902V15.6958C123.604 14.6127 124.86 13.0719 127.664 13.0719V13.0719ZM109.411 13.4459H114.694V29.3415H109.411V13.4459V13.4459Z" fill="white"/>
</g>
<path d="M224.502 2.18726C216.046 2.18726 209.19 9.0431 209.19 17.4984C209.19 25.9537 216.046 32.8096 224.502 32.8096C232.957 32.8096 239.813 25.9537 239.813 17.4984C239.813 9.0431 232.957 2.18726 224.502 2.18726ZM231.86 13.7287C231.87 13.8894 231.87 14.0568 231.87 14.2209C231.87 19.238 228.049 25.0173 221.067 25.0173C218.914 25.0173 216.918 24.3918 215.236 23.3153C215.544 23.3495 215.838 23.3631 216.152 23.3631C217.929 23.3631 219.563 22.7616 220.865 21.7432C219.197 21.709 217.796 20.6153 217.318 19.1115C217.902 19.197 218.428 19.197 219.03 19.0432C218.171 18.8687 217.399 18.4023 216.845 17.7232C216.292 17.0441 215.99 16.1942 215.992 15.3179V15.2701C216.494 15.5538 217.085 15.7281 217.704 15.752C217.184 15.4054 216.757 14.9359 216.462 14.385C216.167 13.8342 216.013 13.219 216.012 12.5941C216.012 11.8866 216.197 11.2407 216.528 10.6802C217.481 11.8536 218.671 12.8133 220.019 13.4969C221.368 14.1805 222.845 14.5727 224.355 14.6481C223.818 12.0677 225.746 9.97954 228.063 9.97954C229.156 9.97954 230.141 10.4375 230.835 11.1757C231.692 11.0151 232.513 10.6938 233.244 10.2632C232.96 11.1415 232.366 11.8832 231.576 12.3514C232.342 12.2694 233.08 12.0575 233.763 11.7601C233.247 12.5189 232.601 13.1921 231.86 13.7287V13.7287Z" fill="white"/>
<defs>
<clipPath id="clip0_9_1299">
<rect width="34.9969" height="34.9969" fill="white"/>
</clipPath>
<clipPath id="clip1_9_1299">
<rect width="34.9969" height="34.9969" fill="white" transform="translate(103.501)"/>
</clipPath>
</defs>
</svg>
