<svg width="52" height="63" viewBox="0 0 52 63" fill="none" xmlns="http://www.w3.org/2000/svg">
<path d="M42.815 6.29309C46.3784 9.32325 49.0296 13.2842 50.4725 17.7337C51.9153 22.1833 52.0932 26.9463 50.986 31.491C49.8789 36.0357 47.5304 40.1833 44.2027 43.4707C40.8751 46.7581 36.6992 49.0559 32.1414 50.1076L26.5405 61.5734L21.1077 50.1876C17.0451 49.3172 13.2637 47.4472 10.1061 44.7468C7.58115 42.5986 5.5041 39.9741 3.99348 37.0232C2.48286 34.0722 1.56825 30.8527 1.30189 27.5483C0.763956 20.8747 2.89911 14.2608 7.23764 9.16152C11.5762 4.06224 17.7627 0.895276 24.4362 0.357341C31.1098 -0.180594 37.7237 1.95456 42.823 6.29309H42.815Z" fill="white"/>
<path d="M42.8151 6.29308C46.3779 9.32412 49.0334 13.2811 50.4882 17.7268C50.8527 18.8326 51.1466 19.9603 51.3684 21.1033C51.5599 22.2523 51.6802 23.412 51.7284 24.5758C51.8373 26.9097 51.6192 29.2474 51.0804 31.5209C50.5507 33.7997 49.7079 35.9943 48.576 38.0418C48.0035 39.0625 47.3591 40.0411 46.6477 40.9703C45.9605 41.9185 45.2007 42.8119 44.3753 43.6427C41.0387 47.0035 36.829 49.3646 32.2215 50.4597L32.4696 50.2677L26.9327 61.7654L26.5327 62.6055L26.1326 61.7654L20.6598 50.4037L20.9959 50.6677C16.228 49.6342 11.8558 47.2566 8.39669 43.8164C4.93754 40.3762 2.5361 36.0171 1.47644 31.255C0.416779 26.4928 0.743239 21.5268 2.4172 16.9443C4.09117 12.3619 7.0426 8.35475 10.9224 5.39695C14 3.09031 17.5535 1.49942 21.3239 0.740252C25.0928 -0.0227242 28.9857 0.0806695 32.7087 1.04262C36.4318 2.00456 39.8876 3.79992 42.8151 6.29308V6.29308ZM42.8151 6.29308C39.9074 3.81087 36.4687 2.02942 32.7639 1.08602C29.059 0.142617 25.187 0.0624636 21.4463 0.851731C17.7056 1.641 14.196 3.27861 11.1881 5.63836C8.18025 7.99811 5.75433 11.017 4.09734 14.4623C2.44519 17.8684 1.59141 21.6063 1.60095 25.3919C1.64748 29.1592 2.51008 32.8717 4.12933 36.2736C5.77081 39.6586 8.15915 42.6269 11.1144 44.9548C14.075 47.2717 17.5172 48.8957 21.1879 49.7076L21.4279 49.7636L21.5239 49.9796L26.9247 61.3813H26.1246L31.8135 49.9556L31.8855 49.7956H32.0535C36.5766 48.8056 40.7333 46.572 44.0553 43.3466C44.8804 42.5419 45.6427 41.6752 46.3356 40.7542C47.0517 39.8502 47.7015 38.8955 48.2799 37.8978C49.4399 35.8963 50.3126 33.7415 50.8723 31.4969C51.4525 29.2515 51.7005 26.9331 51.6084 24.6158C51.5669 23.4582 51.4574 22.304 51.2804 21.1593C51.0639 20.0201 50.778 18.8951 50.4243 17.7908C48.9986 13.329 46.3648 9.34925 42.8151 6.29308V6.29308Z" fill="#263238"/>
<path d="M33.3177 19.111C33.038 18.8258 32.7266 18.5735 32.3896 18.3589C31.9432 18.0697 31.475 17.8156 30.9893 17.5988C29.814 17.0659 28.5552 16.7411 27.2688 16.6386V23.8397L27.9329 23.9757C29.0788 24.2492 30.2086 24.5858 31.3174 24.9839C32.2309 25.3048 33.0912 25.7606 33.8698 26.3361C34.5472 26.8574 35.0948 27.5284 35.47 28.2964C35.8711 29.1854 36.0654 30.1538 36.0381 31.1288C36.0702 32.2114 35.8453 33.2863 35.382 34.2653C34.9539 35.1244 34.3288 35.8701 33.5577 36.4416C32.7412 37.0371 31.8216 37.4765 30.8453 37.7378C29.7657 38.0352 28.6526 38.1938 27.5328 38.2099V41.8584H25.7326V38.1379C24.0938 38.0391 22.4773 37.7077 20.9318 37.1537C19.4431 36.6181 18.0493 35.8483 16.8032 34.8734L18.5715 31.5449C18.9061 31.8881 19.2793 32.1915 19.6837 32.449C20.2254 32.8021 20.7924 33.115 21.3799 33.3851C22.0713 33.7041 22.7854 33.9716 23.5162 34.1853C24.3006 34.4175 25.1038 34.5808 25.9166 34.6733V27.4723C25.7806 27.4323 25.6285 27.3842 25.4845 27.3522C25.338 27.3218 25.1937 27.2817 25.0525 27.2322C23.9672 26.9516 22.8986 26.6097 21.852 26.2081C21.028 25.9011 20.2603 25.4605 19.5796 24.9039C18.9938 24.4209 18.5259 23.8107 18.2114 23.1196C17.8742 22.3346 17.7131 21.4852 17.7394 20.6312C17.7173 19.5949 17.9193 18.5659 18.3315 17.6148C18.7158 16.7462 19.2836 15.971 19.9957 15.3424C20.7317 14.6903 21.584 14.1827 22.5081 13.8462C23.5376 13.4713 24.6152 13.245 25.7086 13.1741V9.66161H27.5088V13.1741C28.9383 13.2468 30.3463 13.5522 31.6775 14.0783C32.8731 14.5444 34.005 15.16 35.046 15.9105L33.3177 19.111ZM21.86 20.0071C21.8316 20.4293 21.9106 20.8518 22.0897 21.2352C22.2688 21.6186 22.5421 21.9503 22.8841 22.1995C23.8386 22.7998 24.8885 23.2327 25.9886 23.4797V16.6386C24.8643 16.6111 23.7631 16.9603 22.8601 17.6308C22.5273 17.9277 22.2648 18.295 22.0918 18.7061C21.9188 19.1171 21.8396 19.5616 21.86 20.0071V20.0071ZM31.9175 31.5369C31.9387 31.0792 31.8372 30.6242 31.6233 30.219C31.4095 29.8138 31.0911 29.4732 30.7013 29.2325C29.6391 28.6011 28.491 28.1267 27.2928 27.8243V34.6974C28.4866 34.7556 29.6729 34.4784 30.7173 33.8972C31.1069 33.6437 31.4229 33.2921 31.6336 32.8778C31.8442 32.4635 31.9422 32.001 31.9175 31.5369V31.5369Z" fill="#6DDAD3"/>
</svg>
