<svg width="247" height="247" viewBox="0 0 247 247" fill="none" xmlns="http://www.w3.org/2000/svg">
<path d="M160.651 91.4682C174.189 105.55 214.859 168.224 218.028 170.096C218.028 170.096 218.028 211.086 195.376 202.901C172.725 194.716 151.962 121.177 147.529 97.7332C145.193 85.3553 149.593 79.9785 160.651 91.4682Z" fill="#D3766A"/>
<path d="M157.203 139.923L198.713 135.203C198.713 135.203 172.965 101.046 159.659 88.8518C145.785 76.1459 138.984 77.9302 145.417 101.998C151.882 126.209 157.203 139.923 157.203 139.923Z" fill="#6DDAD3"/>
<path d="M155.25 117.312C154.794 118.457 154.503 119.661 154.386 120.889C155.834 118.887 156.736 116.543 157.003 114.088C156.262 115.07 155.672 116.156 155.25 117.312ZM178.566 118.248C177.424 117.791 176.222 117.5 174.997 117.384C176.995 118.834 179.337 119.736 181.79 120C180.809 119.258 179.722 118.668 178.566 118.248V118.248ZM172.381 134.395C171.893 133.266 171.246 132.213 170.461 131.266C170.644 132.481 171 133.664 171.517 134.779C171.99 135.914 172.632 136.972 173.421 137.915C173.242 136.699 172.892 135.513 172.381 134.395V134.395ZM148.025 82.3869C147.817 81.9468 147.609 81.5147 147.369 81.0827C147.085 81.0548 146.798 81.0548 146.513 81.0827C146.705 81.6668 146.921 82.2268 147.161 82.7869C147.642 83.9203 148.286 84.9771 149.074 85.9234C148.893 84.7009 148.54 83.5101 148.025 82.3869V82.3869ZM195.865 131.466L195.064 131.786C193.932 132.274 192.874 132.917 191.92 133.699C193.14 133.518 194.328 133.165 195.448 132.65C195.769 132.506 196.081 132.354 196.393 132.186L195.865 131.466ZM163.86 98.4933C162.73 98.9778 161.674 99.6189 160.723 100.398C161.943 100.223 163.132 99.8722 164.252 99.3574C165.383 98.8719 166.439 98.228 167.388 97.4451C166.162 97.6212 164.968 97.9743 163.844 98.4933H163.86ZM161.075 98.5653C161.028 98.5974 160.983 98.6321 160.939 98.6693H161.083C161.083 98.6693 161.059 98.5893 161.059 98.5653H161.075Z" fill="white"/>
<path d="M159.195 132.458C160.163 132.234 161.179 132.146 162.163 132.01L165.22 131.586C167.276 131.298 169.341 131.042 171.405 130.786C175.533 130.306 179.662 129.802 183.799 129.394C184.935 129.282 186.079 129.17 187.215 129.082C188.351 128.994 189.616 128.994 190.816 128.906C190.888 128.906 190.888 129.01 190.816 129.018C189.8 129.17 188.791 129.402 187.775 129.562C186.759 129.722 185.679 129.866 184.631 129.994C182.574 130.258 180.502 130.498 178.438 130.73C174.373 131.17 170.301 131.634 166.22 131.994L162.812 132.282C161.619 132.386 160.411 132.562 159.211 132.554C159.202 132.551 159.193 132.545 159.187 132.538C159.181 132.53 159.177 132.521 159.175 132.511C159.173 132.501 159.174 132.491 159.178 132.482C159.181 132.473 159.187 132.465 159.195 132.458V132.458Z" fill="#263238"/>
<path opacity="0.1" d="M177.342 137.635L157.211 139.923C157.211 139.923 151.89 126.209 145.417 101.998C142.689 91.7883 142.345 85.5873 143.913 82.7949L177.342 137.635Z" fill="black"/>
<path d="M168.716 225.296H105.579C105.059 223.264 104.555 221.296 104.051 219.295C103.475 217.031 102.907 214.823 102.363 212.67C102.243 212.19 102.115 211.71 101.994 211.238C101.578 209.59 101.17 207.99 100.77 206.437C100.53 205.485 100.29 204.549 100.058 203.621C99.8262 202.693 99.5781 201.749 99.3461 200.845C99.2821 200.605 99.2261 200.364 99.1621 200.132L98.97 199.332L98.73 198.396C98.642 198.068 98.562 197.748 98.482 197.428C98.3219 196.82 98.1699 196.22 98.0259 195.636C97.8019 194.772 97.5858 193.924 97.3778 193.099C97.2898 192.739 97.1938 192.379 97.1058 192.027C96.9537 191.451 96.8097 190.891 96.6737 190.339C96.5777 189.971 96.4897 189.611 96.4017 189.259C96.0283 187.808 95.6815 186.448 95.3615 185.178C95.2735 184.842 95.1935 184.514 95.1055 184.194C94.9694 183.642 94.8334 183.114 94.7054 182.594C94.6147 182.274 94.5347 181.962 94.4654 181.658C94.1853 180.57 93.9293 179.577 93.7133 178.705C93.6492 178.473 93.5932 178.249 93.5372 178.033C93.3932 177.457 93.2572 176.945 93.1452 176.489C93.0972 176.305 93.0572 176.129 93.0091 175.969L92.8811 175.465C92.8811 175.353 92.8251 175.241 92.8011 175.145L92.6891 174.713C92.6891 174.643 92.6731 174.579 92.6411 174.521L92.4971 173.953H153.954C153.954 173.953 155.979 180.93 159.219 192.179C159.875 194.468 160.587 196.98 161.347 199.564C163.5 207.069 166.012 215.823 168.716 225.296Z" fill="#37474F"/>
<path d="M115.916 225.296H114.316C111.98 215.625 109.716 205.936 107.523 196.228C106.99 193.865 106.456 191.502 105.923 189.139L105.779 188.475C105.776 188.452 105.782 188.428 105.795 188.409C105.808 188.39 105.828 188.376 105.85 188.371C105.873 188.365 105.896 188.367 105.917 188.378C105.938 188.388 105.954 188.405 105.963 188.427C105.963 188.499 106.003 188.571 106.027 188.643C106.736 191.182 107.443 193.723 108.147 196.268C110.852 205.917 113.441 215.593 115.916 225.296Z" fill="#263238"/>
<path d="M151.962 173.961L149.25 187.563L147.025 198.7L143.241 217.679L142.849 219.623L142.2 222.864L141.696 225.296H105.571C105.059 223.256 104.547 221.296 104.051 219.295C103.475 217.031 102.907 214.823 102.363 212.67C102.243 212.19 102.115 211.71 101.994 211.238C101.578 209.59 101.17 207.99 100.77 206.437C100.53 205.485 100.29 204.549 100.058 203.621C99.8262 202.693 99.5781 201.749 99.3461 200.845C99.2821 200.605 99.2261 200.364 99.1621 200.132L98.97 199.332L98.73 198.396C98.642 198.068 98.562 197.748 98.482 197.428C98.3219 196.82 98.1699 196.22 98.0259 195.636C97.8019 194.772 97.5858 193.924 97.3778 193.099C97.2818 192.731 97.1938 192.379 97.1058 192.027C96.9537 191.451 96.8097 190.891 96.6737 190.339C96.5777 189.971 96.4897 189.611 96.4017 189.259C96.0283 187.808 95.6815 186.448 95.3615 185.178C95.2735 184.842 95.1935 184.514 95.1055 184.194C94.9694 183.642 94.8334 183.114 94.7054 182.594C94.6147 182.274 94.5347 181.962 94.4654 181.658C94.1853 180.57 93.9293 179.577 93.7133 178.705C93.6492 178.473 93.5932 178.249 93.5372 178.033C93.3932 177.457 93.2572 176.945 93.1452 176.489C93.0972 176.305 93.0572 176.129 93.0091 175.969L92.8811 175.465C92.8811 175.353 92.8251 175.241 92.8011 175.145L92.6891 174.713C92.6891 174.643 92.6731 174.579 92.6411 174.521L92.4971 173.953L151.962 173.961Z" fill="#263238"/>
<path d="M151.97 173.937C151.97 174.273 151.714 177.937 151.122 183.538C150.954 185.138 150.754 186.963 150.522 188.883C150.162 191.915 149.722 195.284 149.161 198.796C148.217 204.965 146.985 211.694 145.385 218.271C144.817 220.672 144.193 222.984 143.529 225.28H64.1968C65.1329 213.19 65.989 202.253 66.6691 193.635C67.6213 181.506 68.2694 173.913 68.2694 173.913H140.232L151.97 173.937Z" fill="#37474F"/>
<path d="M151.802 181.226C151.714 184.066 151.594 186.898 151.41 189.723C151.218 192.787 150.938 195.844 150.537 198.9C150.537 199.012 150.537 199.124 150.497 199.236C150.124 202.101 149.695 204.957 149.209 207.806C148.753 210.462 148.409 213.326 147.241 215.807C146.797 216.758 146.166 217.61 145.385 218.311C144.67 218.965 143.795 219.418 142.848 219.623C142.693 219.662 142.535 219.689 142.376 219.703H142.24C142.269 219.72 142.293 219.745 142.309 219.775C142.324 219.804 142.331 219.838 142.328 219.871C142.328 220.824 142.328 221.792 142.216 222.736C142.216 222.776 142.216 222.816 142.216 222.856C142.12 223.656 141.968 224.496 141.816 225.312H140.456V225.264C140.696 224.368 140.896 223.464 141.12 222.56C141.344 221.656 141.664 220.736 141.88 219.799C141.892 219.764 141.914 219.734 141.944 219.711C141.081 219.753 140.225 219.529 139.493 219.07C138.761 218.611 138.186 217.938 137.848 217.143C137.506 215.926 137.484 214.642 137.784 213.414C138.032 211.814 138.272 210.166 138.52 208.542C138.984 205.557 139.584 202.605 140.12 199.636L140.36 198.284C141.424 192.243 142.536 186.202 143.872 180.217C143.921 179.969 143.977 179.721 144.033 179.473C144.089 179.225 144.337 179.353 144.321 179.513C144.281 179.913 144.241 180.313 144.193 180.722C143.958 183.021 143.691 185.309 143.392 187.587C143.008 190.267 142.744 192.963 142.368 195.644C142.24 196.556 142.112 197.468 141.976 198.38C141.36 202.789 140.72 207.181 139.968 211.59C139.616 213.63 138.368 217.287 141.28 217.919C141.953 218.068 142.657 217.981 143.272 217.671C144.569 216.89 145.539 215.664 146.001 214.223C146.721 211.821 147.243 209.364 147.561 206.877C148.041 204.21 148.468 201.519 148.841 198.804C149.321 195.438 149.823 192.075 150.345 188.715C150.607 187.002 150.874 185.29 151.146 183.578L151.53 181.178C151.538 181.01 151.802 181.058 151.802 181.226Z" fill="#263238"/>
<path d="M81.5991 202.317C84.9029 202.282 88.1897 201.839 91.3845 200.997C92.8568 200.621 94.313 200.148 95.7612 199.676C97.1961 199.28 98.5391 198.606 99.7138 197.692C101.938 195.772 102.97 192.755 103.938 190.067C104.989 187.04 105.842 183.948 106.491 180.81C106.491 180.658 106.747 180.714 106.755 180.858C106.832 184.406 106.381 187.947 105.419 191.363C104.619 194.268 103.546 197.5 101.202 199.532C98.8577 201.565 95.3931 202.429 92.2327 202.813C88.6888 203.225 85.1065 203.177 81.5751 202.669C81.5284 202.666 81.4849 202.644 81.4541 202.609C81.4234 202.574 81.4079 202.527 81.4111 202.481C81.4142 202.434 81.4358 202.391 81.4711 202.36C81.5064 202.329 81.5524 202.314 81.5991 202.317V202.317Z" fill="#263238"/>
<path d="M76.0865 180.906C75.9105 185.344 75.7238 189.787 75.5264 194.236C75.073 204.589 74.5743 214.943 74.0302 225.296H72.542C73.2248 214.921 73.9422 204.552 74.6943 194.188C75.0197 189.755 75.3557 185.325 75.7025 180.898C75.7035 180.847 75.7248 180.798 75.7615 180.763C75.7983 180.728 75.8476 180.708 75.8985 180.71C75.9494 180.711 75.9978 180.732 76.0331 180.769C76.0684 180.805 76.0876 180.855 76.0865 180.906V180.906Z" fill="#263238"/>
<path d="M165.628 206.797L58.0034 198.636C58.0034 198.636 79.6547 112.823 122.405 81.2747C133.335 73.2175 145.296 78.3863 150.681 84.4112C164.363 99.7575 165.948 206.453 165.628 206.797Z" fill="#6DDAD3"/>
<path d="M127.382 85.1793C126.93 86.3231 126.64 87.5241 126.518 88.7478C127.255 87.7706 127.847 86.6928 128.278 85.5473C128.73 84.4035 129.02 83.2025 129.142 81.9788C128.408 82.9579 127.816 84.0353 127.382 85.1793V85.1793ZM115.7 131.474C115.24 132.618 114.952 133.823 114.844 135.051C116.285 133.047 117.184 130.704 117.452 128.25C116.718 129.236 116.128 130.321 115.7 131.474V131.474ZM77.2464 151.325C76.7911 152.471 76.5002 153.675 76.3823 154.902C77.8304 152.9 78.7322 150.556 78.9987 148.101C78.2703 149.091 77.6807 150.175 77.2464 151.325V151.325ZM108.283 180.57C107.819 181.709 107.527 182.912 107.419 184.138C108.86 182.134 109.759 179.791 110.027 177.337C109.294 178.325 108.706 179.414 108.283 180.57ZM155.25 117.296C154.794 118.441 154.503 119.645 154.386 120.873C155.834 118.871 156.736 116.527 157.002 114.072C156.26 115.059 155.67 116.151 155.25 117.312V117.296ZM136.095 175.505C135.63 176.645 135.336 177.847 135.223 179.073C135.959 178.097 136.549 177.019 136.975 175.873C137.431 174.73 137.722 173.529 137.839 172.304C137.106 173.281 136.519 174.359 136.095 175.505V175.505ZM97.3134 115.12C96.8572 116.262 96.5662 117.464 96.4493 118.688C97.8995 116.689 98.799 114.344 99.0577 111.887C98.3209 112.873 97.7331 113.963 97.3134 115.12V115.12ZM140.312 99.7574C139.171 99.2966 137.969 99.0055 136.743 98.8933C137.721 99.6244 138.799 100.212 139.944 100.638C141.087 101.1 142.292 101.391 143.52 101.502C142.541 100.769 141.46 100.181 140.312 99.7574V99.7574ZM152.506 138.331C151.364 137.872 150.162 137.581 148.937 137.467C149.913 138.201 150.991 138.789 152.138 139.211C153.279 139.673 154.481 139.967 155.706 140.083C154.729 139.358 153.65 138.778 152.506 138.363V138.331ZM155.778 184.434C154.636 183.978 153.434 183.687 152.21 183.57C153.185 184.307 154.264 184.897 155.41 185.322C156.553 185.777 157.754 186.067 158.979 186.186C157.997 185.466 156.92 184.887 155.778 184.466V184.434ZM79.1667 180.642C78.0246 180.184 76.8229 179.893 75.5982 179.777C77.5955 181.227 79.9374 182.129 82.3912 182.394C81.4042 181.669 80.3183 181.09 79.1667 180.674V180.642ZM106.859 151.037C105.717 150.578 104.515 150.285 103.29 150.165C104.268 150.901 105.346 151.494 106.491 151.925C107.635 152.377 108.836 152.668 110.059 152.789C109.08 152.064 108.003 151.482 106.859 151.061V151.037ZM148.025 82.3628C147.913 82.1228 147.801 81.8908 147.681 81.6587C147.289 81.3627 146.881 81.0747 146.441 80.7946C146.639 81.4653 146.879 82.1227 147.161 82.7629C147.641 83.8963 148.286 84.953 149.073 85.8994C148.891 84.685 148.538 83.5025 148.025 82.3868V82.3628ZM116.572 107.247C116.09 106.114 115.446 105.058 114.66 104.11C115.045 106.551 116.066 108.847 117.62 110.767C117.444 109.549 117.091 108.363 116.572 107.247V107.247ZM144.344 201.925C143.862 200.794 143.221 199.738 142.44 198.788C142.617 200.005 142.968 201.191 143.48 202.309C143.936 203.361 144.525 204.35 145.233 205.253H145.361C145.176 204.102 144.834 202.982 144.344 201.925V201.925ZM134.127 146.164C133.64 145.034 132.996 143.978 132.215 143.028C132.612 145.463 133.629 147.755 135.167 149.685C134.99 148.468 134.64 147.282 134.127 146.164ZM60.82 188.683C60.772 188.851 60.724 189.019 60.668 189.179C60.772 189.291 60.868 189.411 60.964 189.523C60.932 189.248 60.8839 188.976 60.82 188.707V188.683ZM92.8248 167.336C92.3391 166.207 91.6952 165.154 90.9125 164.207C91.2992 166.645 92.3202 168.938 93.8729 170.856C93.6822 169.646 93.3212 168.469 92.8008 167.36L92.8248 167.336ZM99.6898 198.14C99.2043 197.009 98.5604 195.953 97.7775 195.004C98.1737 197.443 99.1935 199.739 100.738 201.669C100.55 200.458 100.189 199.28 99.6658 198.172L99.6898 198.14ZM153.514 161.079C152.384 161.566 151.328 162.21 150.377 162.991C151.595 162.811 152.78 162.458 153.898 161.943C155.033 161.46 156.092 160.816 157.042 160.03C155.812 160.213 154.616 160.575 153.49 161.103L153.514 161.079ZM68.6212 165.751L68.2131 166.855C69.076 166.439 69.8826 165.915 70.6135 165.295C69.9266 165.385 69.2508 165.546 68.5972 165.775L68.6212 165.751ZM123.493 192.411C122.362 192.893 121.306 193.534 120.357 194.316C121.576 194.137 122.764 193.787 123.885 193.275C125.016 192.785 126.071 192.139 127.022 191.355C125.791 191.537 124.593 191.901 123.469 192.435L123.493 192.411ZM74.422 199.548L73.8699 199.812L75.7502 199.956C76.5361 199.56 77.2721 199.071 77.9426 198.5C76.7162 198.688 75.5227 199.049 74.398 199.572L74.422 199.548ZM93.2728 133.755C92.1457 134.247 91.0906 134.89 90.1364 135.667C92.5752 135.273 94.871 134.256 96.8014 132.714C95.5718 132.895 94.3751 133.253 93.2488 133.779L93.2728 133.755ZM120.861 164.399C119.73 164.887 118.674 165.534 117.724 166.319C120.165 165.927 122.462 164.907 124.389 163.359C123.161 163.543 121.964 163.901 120.837 164.423L120.861 164.399ZM135.263 122.273C134.135 122.763 133.079 123.407 132.127 124.185C134.565 123.798 136.86 122.781 138.784 121.233C137.549 121.414 136.347 121.772 135.215 122.297L135.263 122.273Z" fill="white"/>
<path d="M144.585 102.342C138.376 101.422 132.071 88.8919 130.983 80.3466C130.911 79.7545 140.584 61.2957 142.096 57.4471C142.409 56.647 163.98 72.9375 163.98 72.9375C163.98 72.9375 158.379 80.0745 155.763 86.8195C155.578 87.3796 150.586 103.222 144.585 102.342Z" fill="#D3766A"/>
<path d="M164.012 72.9374C164.012 72.9374 158.411 80.0745 155.786 86.8115C155.738 86.9475 155.418 87.9397 154.89 89.3559C143.801 83.7551 139.28 73.7536 137.456 67.1526C139.552 62.952 141.504 59.0074 142.128 57.4471C142.44 56.655 164.012 72.9374 164.012 72.9374Z" fill="#263238"/>
<path d="M147.081 27.4667C140.768 34.7718 134.455 61.1197 138.063 69.2169C143.304 80.9467 157.266 87.9957 168.564 80.4986C179.55 73.2255 187.167 38.7404 182.63 30.8352C175.957 19.1854 156.394 16.6811 147.081 27.4667Z" fill="#D3766A"/>
<path d="M163.948 48.8699C163.147 48.9339 162.347 48.8699 161.547 48.8699C160.698 48.9855 159.834 48.8167 159.091 48.3898C158.884 48.2097 158.741 47.9663 158.686 47.6973C158.631 47.4282 158.667 47.1485 158.787 46.9016C159.099 46.4504 159.527 46.0908 160.024 45.8601C160.522 45.6294 161.073 45.536 161.619 45.5894C162.741 45.5234 163.848 45.877 164.724 46.5815C164.909 46.7561 165.04 46.9802 165.102 47.2273C165.164 47.4744 165.153 47.7339 165.071 47.9751C164.989 48.2162 164.84 48.4288 164.641 48.5874C164.441 48.746 164.201 48.8441 163.948 48.8699V48.8699Z" fill="#263238"/>
<path d="M163.243 52.7344C163.243 52.6624 163.083 52.7904 163.067 52.8705C162.771 54.6707 162.123 56.687 160.387 56.9591C160.331 56.9591 160.315 57.0551 160.387 57.0631C162.411 57.1751 163.243 54.4947 163.243 52.7344Z" fill="#263238"/>
<path d="M162.011 50.5421C159.171 49.742 157.795 55.4948 160.411 56.223C163.027 56.9511 164.388 51.2062 162.011 50.5421Z" fill="#263238"/>
<path d="M173.565 54.9508C173.565 54.8868 173.685 55.0708 173.669 55.1428C173.189 56.9031 172.933 59.0074 174.397 59.9435C174.445 59.9435 174.397 60.0635 174.357 60.0395C172.461 59.3354 172.829 56.551 173.565 54.9508Z" fill="#263238"/>
<path d="M175.598 53.4785C178.51 53.9426 177.366 59.7275 174.669 59.2954C171.973 58.8633 173.157 53.0865 175.598 53.4785Z" fill="#263238"/>
<path d="M178.55 50.6301C177.815 50.2885 177.099 49.9065 176.406 49.4859C175.592 49.1855 174.903 48.6223 174.445 47.8857C174.345 47.6282 174.333 47.3448 174.411 47.0798C174.49 46.8149 174.653 46.5833 174.877 46.4215C175.862 45.7814 176.998 46.0774 178.006 46.5735C179.034 47.0417 179.852 47.874 180.302 48.9099C180.397 49.1535 180.418 49.4195 180.363 49.6749C180.308 49.9304 180.179 50.1642 179.993 50.3472C179.806 50.5303 179.57 50.6547 179.314 50.705C179.057 50.7552 178.792 50.7292 178.55 50.6301V50.6301Z" fill="#263238"/>
<path d="M157.29 68.1367C157.61 68.6568 157.898 69.3289 158.531 69.5369C159.198 69.6808 159.888 69.6808 160.555 69.5369C160.568 69.5357 160.582 69.5387 160.594 69.5457C160.605 69.5526 160.614 69.563 160.62 69.5755C160.625 69.5879 160.626 69.6017 160.623 69.6149C160.62 69.6282 160.613 69.6401 160.603 69.649C160.266 69.9367 159.858 70.1281 159.421 70.2027C158.984 70.2774 158.536 70.2326 158.122 70.073C157.782 69.8935 157.502 69.6164 157.32 69.2772C157.137 68.9379 157.06 68.552 157.098 68.1687C157.098 68.0647 157.242 68.0567 157.29 68.1367Z" fill="#263238"/>
<path d="M160.427 63.264C160.713 64.0743 161.162 64.8171 161.747 65.4462C162.332 66.0753 163.04 66.5772 163.828 66.9206C164.512 67.2294 165.237 67.4396 165.98 67.5447C166.119 67.576 166.262 67.5921 166.404 67.5927C166.54 67.6012 166.676 67.6012 166.812 67.5927C166.911 67.5987 167.009 67.5712 167.091 67.5145C167.172 67.4579 167.232 67.3755 167.26 67.2806V67.2806C167.264 67.2167 167.264 67.1525 167.26 67.0886V66.9286C167.62 65.5684 167.989 63.456 167.989 63.456C168.429 63.8241 170.701 65.5844 170.837 64.8563C171.901 58.8554 173.077 52.1824 172.869 45.9814C172.869 45.9369 172.852 45.8941 172.82 45.8626C172.789 45.8311 172.746 45.8134 172.701 45.8134C172.657 45.8134 172.614 45.8311 172.582 45.8626C172.551 45.8941 172.533 45.9369 172.533 45.9814C171.285 51.7103 171.053 57.6232 169.885 63.4C169.102 62.7571 168.232 62.2291 167.3 61.8318C167.092 61.8318 166.668 65.9284 166.452 66.5205C166.454 66.5418 166.454 66.5632 166.452 66.5845C164.052 66.3285 162.516 65.2163 160.651 63.144C160.531 63.008 160.355 63.096 160.427 63.264Z" fill="#263238"/>
<path d="M165.34 66.6565C164.354 67.4519 163.18 67.9808 161.931 68.1927C161.248 68.2879 160.551 68.1677 159.939 67.8487C158.611 67.1366 158.883 65.8244 159.411 64.7682C159.698 64.2116 160.05 63.6906 160.459 63.216C161.677 64.8549 163.387 66.0607 165.34 66.6565Z" fill="#263238"/>
<path d="M161.931 68.1927C161.248 68.2879 160.551 68.1677 159.939 67.8487C158.611 67.1366 158.883 65.8244 159.411 64.7682C160.899 65.2883 162.155 66.6885 161.931 68.1927Z" fill="#FF97B8"/>
<path d="M185.047 41.0927C173.845 45.7814 162.515 32.8115 162.515 32.8115C161.232 34.7799 159.347 36.281 157.141 37.0913C154.935 37.9016 152.526 37.9776 150.274 37.3081C150.274 37.3081 144.897 53.5265 140.512 52.5504C133.847 51.1262 136.511 28.0347 139.528 24.0181C142.544 20.0015 148.465 20.0175 148.465 20.0175C148.465 20.0175 149.593 16.649 154.378 14.3527C159.659 11.8083 174.381 19.7855 174.381 19.7855C175.717 17.8691 177.485 16.2932 179.542 15.1848C180.038 14.9058 180.586 14.7304 181.153 14.6694C181.719 14.6084 182.292 14.6629 182.836 14.8297C183.381 14.9966 183.886 15.2722 184.321 15.6399C184.756 16.0076 185.112 16.4598 185.367 16.9691C184.274 18.0205 183.434 19.3064 182.91 20.7297C181.11 25.4344 185.087 26.2585 185.975 21.8338C186.361 20.1917 186.145 18.4657 185.367 16.9691C187.927 14.4887 191.328 14.2167 192.952 16.169C195.936 19.7455 194.368 37.2041 185.047 41.0927Z" fill="#263238"/>
<path d="M157.571 61.6398C156.192 61.1979 154.966 60.3778 154.031 59.273C153.096 58.1682 152.489 56.823 152.281 55.3906C152.073 53.9582 152.272 52.4962 152.854 51.171C153.436 49.8458 154.379 48.7107 155.574 47.895C156.77 47.0792 158.17 46.6156 159.617 46.5568C161.063 46.4981 162.497 46.8466 163.754 47.5628C165.012 48.2789 166.044 49.3338 166.731 50.6074C167.419 51.8811 167.735 53.3222 167.644 54.7667V54.7667C167.568 55.9398 167.227 57.0802 166.644 58.1014C166.062 59.1226 165.255 59.9976 164.284 60.6601C163.313 61.3226 162.203 61.7552 161.04 61.9249C159.877 62.0947 158.69 61.9972 157.571 61.6398ZM161.987 47.9177C161.468 47.7497 160.931 47.6449 160.387 47.6057C158.682 47.4846 156.994 48.0189 155.669 49.0994C154.344 50.1799 153.482 51.7253 153.257 53.4202C153.032 55.1151 153.463 56.8318 154.461 58.22C155.459 59.6083 156.949 60.5635 158.627 60.8907C160.305 61.2179 162.045 60.8926 163.491 59.9809C164.938 59.0693 165.982 57.6402 166.41 55.9851C166.839 54.33 166.62 52.5737 165.798 51.0745C164.976 49.5754 163.613 48.4463 161.987 47.9177V47.9177Z" fill="#FFC727"/>
<path d="M174.621 64.8722C171.853 63.8321 170.412 60.0715 171.421 56.1429C171.85 54.2634 172.861 52.5669 174.309 51.2942C174.894 50.7044 175.622 50.2766 176.422 50.0525C177.222 49.8284 178.066 49.8157 178.873 50.0157C179.679 50.2156 180.42 50.6214 181.022 51.1933C181.625 51.7652 182.068 52.4837 182.31 53.2785C182.988 55.0838 183.086 57.0558 182.59 58.9194C181.566 63.048 178.23 65.7924 175.149 65.0243C174.969 64.9895 174.792 64.9387 174.621 64.8722V64.8722ZM178.95 51.1502L178.574 51.0382C177.927 50.9076 177.259 50.9347 176.625 51.1171C175.991 51.2996 175.411 51.632 174.933 52.0863C173.655 53.2206 172.763 54.7254 172.381 56.391C171.493 59.9755 172.813 63.4 175.349 64.0241C177.885 64.6482 180.654 62.2478 181.542 58.6713C181.987 57.0204 181.903 55.2713 181.302 53.6706C181.109 53.1089 180.799 52.5943 180.394 52.16C179.989 51.7258 179.497 51.3817 178.95 51.1502V51.1502Z" fill="#FFC727"/>
<path d="M167.22 55.5989L166.724 54.6947C168.06 53.9506 170.973 53.1825 172.437 55.4948L171.557 56.0389C170.253 53.9666 167.34 55.5269 167.22 55.5989Z" fill="#FFC727"/>
<path d="M133.071 50.8782L132.271 50.2381C132.575 49.862 135.271 46.5575 137.6 46.6375C139.784 46.7175 153.114 50.6381 153.682 50.8382L153.386 51.8303C149.562 50.6941 139.256 47.7257 137.568 47.6697C136.016 47.6137 133.799 49.966 133.071 50.8782Z" fill="#FFC727"/>
<path d="M143.369 51.0462C143.369 51.0462 141.216 40.7406 136.768 41.1807C132.319 41.6208 131.567 54.8788 135.128 58.2633C135.553 58.7285 136.068 59.103 136.641 59.364C137.215 59.6251 137.836 59.7674 138.466 59.7823C139.096 59.7973 139.723 59.6846 140.308 59.451C140.894 59.2175 141.426 58.8679 141.873 58.4233L143.369 51.0462Z" fill="#D3766A"/>
<path d="M136.647 44.9893C136.583 44.9493 136.527 45.0373 136.575 45.0933C139.032 47.5577 139.408 50.9742 139.288 54.2867C138.872 52.8145 137.927 51.6943 136.007 52.1184C135.911 52.1184 135.935 52.2864 136.007 52.3104C136.6 52.3651 137.16 52.6035 137.611 52.9923C138.061 53.381 138.379 53.9006 138.52 54.4787C138.754 55.4435 138.886 56.4305 138.912 57.4231C138.912 57.7512 139.472 57.8152 139.504 57.4231C139.5 57.3966 139.5 57.3697 139.504 57.3431C141.216 53.6466 140.544 47.1016 136.647 44.9893Z" fill="#263238"/>
<path d="M198.225 123.377C200.249 118.048 247.184 127.698 245.312 135.867C238.439 165.791 219.284 192.531 214.443 198.644C208.09 206.645 195.448 204.869 190.84 200.02C184.159 192.987 196.225 128.658 198.225 123.377Z" fill="#D3766A"/>
<path d="M194.92 138.067C193.877 140.935 193.051 143.877 192.448 146.868C191.768 149.829 191.176 152.805 190.696 155.798C189.747 161.851 189.212 167.962 189.095 174.089C189.007 177.513 189.095 180.93 189.095 184.354C189.095 184.434 189.223 184.426 189.223 184.354C189.223 181.322 189.407 178.265 189.655 175.241C189.903 172.216 190.207 169.136 190.599 166.103C191.36 160.142 192.2 154.19 193.28 148.277C193.579 146.618 193.891 144.964 194.216 143.316C194.56 141.604 194.952 139.899 195.176 138.163C195.176 138.035 194.976 137.923 194.92 138.067Z" fill="#263238"/>
<path d="M186.903 39.0364C186.594 43.1111 185.984 47.1574 185.079 51.1422C184.927 51.8223 184.758 52.5184 184.59 53.2065C183.918 55.9429 183.118 58.6953 182.19 61.3437C181.977 61.9838 181.753 62.6159 181.518 63.24C178.678 70.9132 174.925 77.5141 170.7 80.3146C169.628 81.034 168.489 81.6502 167.3 82.1548C161.244 78.6227 156.186 73.6077 152.603 67.5818C149.019 61.5559 147.028 54.7173 146.817 47.7097L145.537 47.3576C145.737 47.0456 145.945 46.7255 146.145 46.3895C146.345 46.0534 146.593 45.6294 146.809 45.2293C147.129 34.928 151.29 25.1189 158.475 17.7292C168.532 15.0248 180.574 18.8894 185.639 27.7147C186.871 29.899 187.247 34.0116 186.903 39.0364Z" fill="#D3766A"/>
<path d="M165.82 46.8136C164.97 46.8576 164.118 46.8576 163.268 46.8136C162.284 46.8136 161.499 46.8856 160.659 46.3015C160.433 46.1101 160.278 45.8477 160.22 45.5572C160.162 45.2666 160.204 44.9649 160.339 44.7012C160.955 43.6131 162.156 43.333 163.34 43.309C164.528 43.2387 165.7 43.6122 166.628 44.3572C166.834 44.5396 166.982 44.7783 167.054 45.0437C167.125 45.3092 167.118 45.5899 167.032 45.8511C166.946 46.1123 166.785 46.3426 166.57 46.5137C166.355 46.6847 166.094 46.789 165.82 46.8136V46.8136Z" fill="#263238"/>
<path d="M165.076 50.9502C165.076 50.8782 164.908 51.0142 164.892 51.0862C164.58 52.9985 163.892 55.1348 162.052 55.4228C161.996 55.4228 161.98 55.5268 162.052 55.5348C164.196 55.6149 165.076 52.7744 165.076 50.9502Z" fill="#263238"/>
<path d="M163.772 48.5898C160.763 47.7497 159.307 53.8306 162.091 54.6067C164.876 55.3828 166.292 49.2939 163.772 48.5898Z" fill="#263238"/>
<path d="M176.013 53.2545C176.013 53.1905 176.141 53.3825 176.117 53.4625C175.605 55.3268 175.317 57.5511 176.917 58.5833C176.965 58.5833 176.917 58.7113 176.877 58.6873C174.845 57.8952 175.229 54.9508 176.013 53.2545Z" fill="#263238"/>
<path d="M178.166 51.6943C181.246 52.1904 180.03 58.3193 177.173 57.8632C174.317 57.4071 175.581 51.2782 178.166 51.6943Z" fill="#263238"/>
<path d="M181.286 48.6778C180.486 48.3338 179.79 47.8777 179.022 47.4697C178.164 47.1548 177.434 46.5674 176.942 45.7974C176.837 45.5257 176.825 45.227 176.907 44.9477C176.99 44.6684 177.162 44.4242 177.398 44.2532C178.446 43.5731 179.646 43.8851 180.71 44.4132C181.789 44.9119 182.644 45.7928 183.111 46.8856C183.201 47.1388 183.218 47.4128 183.158 47.675C183.098 47.9373 182.964 48.1769 182.772 48.3654C182.58 48.554 182.338 48.6836 182.075 48.739C181.812 48.7943 181.538 48.7731 181.286 48.6778V48.6778Z" fill="#263238"/>
<path d="M158.771 67.2246C159.115 67.7687 159.419 68.4808 160.091 68.7048C160.795 68.8607 161.524 68.8607 162.227 68.7048C162.242 68.7044 162.255 68.708 162.267 68.7154C162.28 68.7228 162.289 68.7336 162.295 68.7463C162.301 68.7591 162.303 68.7734 162.301 68.7873C162.299 68.8013 162.293 68.8143 162.283 68.8248C161.926 69.1305 161.493 69.3337 161.029 69.4126C160.566 69.4915 160.089 69.4432 159.651 69.2729C159.292 69.0815 158.997 68.7878 158.805 68.4288C158.612 68.0698 158.531 67.6619 158.571 67.2566C158.563 67.1446 158.715 67.1446 158.771 67.2246Z" fill="#263238"/>
<path d="M162.099 62.0558C162.398 62.9156 162.871 63.7042 163.489 64.3721C164.108 65.0399 164.858 65.5726 165.692 65.9364C166.416 66.2633 167.184 66.4843 167.972 66.5925C168.122 66.6264 168.275 66.6452 168.428 66.6485C168.569 66.6573 168.711 66.6573 168.852 66.6485C168.957 66.6552 169.062 66.6266 169.149 66.5672C169.236 66.5077 169.3 66.4209 169.332 66.3205V66.3205C169.341 66.2567 169.341 66.1922 169.332 66.1284V66.1284V65.9604C169.716 64.5202 170.132 62.2799 170.132 62.2799C170.596 62.6719 173.005 64.5362 173.141 63.7681C174.269 57.3671 175.541 50.3341 175.301 43.7651C175.301 43.7184 175.283 43.6736 175.25 43.6406C175.217 43.6076 175.172 43.5891 175.125 43.5891C175.078 43.5891 175.034 43.6076 175.001 43.6406C174.968 43.6736 174.949 43.7184 174.949 43.7651C173.621 49.83 173.349 56.0949 172.141 62.1678C171.284 61.5056 170.339 60.9669 169.332 60.5676C169.116 60.5676 168.66 64.9042 168.436 65.5363C168.44 65.5575 168.44 65.5791 168.436 65.6003C165.932 65.3283 164.268 64.1601 162.299 61.9518C162.203 61.7918 162.019 61.8798 162.099 62.0558Z" fill="#263238"/>
<path d="M167.3 65.6564C166.255 66.4916 165.012 67.0428 163.691 67.2566C162.969 67.3603 162.232 67.2314 161.587 66.8886C160.171 66.1364 160.467 64.7442 161.027 63.6321C161.329 63.0411 161.699 62.4878 162.131 61.9838C163.417 63.7288 165.229 65.0159 167.3 65.6564V65.6564Z" fill="#263238"/>
<path d="M163.684 67.2806C162.961 67.3843 162.224 67.2554 161.579 66.9126C160.163 66.1604 160.459 64.7682 161.019 63.6561C162.587 64.2082 163.924 65.6804 163.684 67.2806Z" fill="#FF97B8"/>
<path d="M188.167 38.5803C187.743 38.7563 187.319 38.9084 186.903 39.0364C175.445 42.5889 164.3 29.803 164.3 29.803C162.946 31.8945 160.953 33.4921 158.617 34.3574C156.28 35.2226 153.727 35.309 151.338 34.6037C150.095 38.265 148.573 41.8253 146.785 45.2533C147 38.4496 148.892 31.8042 152.292 25.9071C155.692 20.0099 160.496 15.0434 166.276 11.4483C169.926 12.729 173.477 14.2746 176.902 16.073C178.32 14.0433 180.194 12.3745 182.374 11.2002C182.9 10.9043 183.48 10.718 184.079 10.6527C184.678 10.5873 185.285 10.6443 185.861 10.8201C186.438 10.9958 186.973 11.2868 187.434 11.6753C187.895 12.0639 188.272 12.5419 188.543 13.0805C187.389 14.203 186.5 15.57 185.943 17.0811C184.039 22.0579 188.247 22.93 189.183 18.2493C189.597 16.508 189.37 14.676 188.543 13.0885C191.256 10.4721 194.856 10.1841 196.545 12.2884C199.697 15.9849 198.049 34.4597 188.167 38.5803Z" fill="#263238"/>
<path d="M166.796 46.2615C165.464 45.1518 163.813 44.4959 162.083 44.3892C161.563 44.3554 161.04 44.3742 160.523 44.4452C159.226 44.6128 157.989 45.0891 156.914 45.8339C155.839 46.5787 154.958 47.5704 154.346 48.7258C154.169 49.049 154.019 49.3861 153.898 49.734C153.62 50.4731 153.456 51.25 153.41 52.0383C153.298 53.854 153.793 55.6553 154.817 57.1588C155.842 58.6623 157.336 59.7826 159.067 60.3436C159.716 60.5477 160.388 60.674 161.067 60.7196H161.579C163.541 60.7234 165.439 60.0239 166.929 58.7483C168.418 57.4726 169.402 55.7052 169.7 53.7666C169.7 53.5346 169.756 53.3025 169.772 53.0625C169.788 52.8225 169.772 52.7104 169.772 52.5424C169.77 51.3408 169.502 50.1547 168.987 49.0689C168.473 47.9831 167.724 47.0244 166.796 46.2615V46.2615ZM161.131 59.6235C159.411 59.5133 157.79 58.7802 156.571 57.5612C155.352 56.3422 154.619 54.7209 154.509 53.0006C154.4 51.2804 154.92 49.579 155.974 48.2149C157.028 46.8508 158.543 45.9174 160.235 45.5894C160.823 45.4755 161.422 45.4379 162.019 45.4774C162.607 45.5157 163.187 45.6258 163.748 45.8054C164.462 46.0351 165.135 46.3782 165.74 46.8216C166.983 47.722 167.901 49.0022 168.353 50.4694C168.806 51.9365 168.77 53.511 168.25 54.9556C167.73 56.4002 166.754 57.6367 165.47 58.4786C164.186 59.3205 162.663 59.7223 161.131 59.6235V59.6235Z" fill="#6DDAD3"/>
<path d="M185.223 51.4862L185.079 51.1422C184.589 50.0172 183.746 49.0821 182.678 48.4778C182.334 48.2861 181.965 48.1408 181.582 48.0457C181.025 47.9101 180.447 47.8775 179.878 47.9497C178.718 48.112 177.63 48.6098 176.749 49.3819C176.088 49.9455 175.516 50.6065 175.053 51.3422C174.7 51.8874 174.403 52.4663 174.165 53.0705C174.002 53.46 173.868 53.8612 173.765 54.2707C173.736 54.3519 173.712 54.4347 173.693 54.5187C173.219 56.3329 173.269 58.2445 173.837 60.0315C174.074 60.8591 174.492 61.6237 175.061 62.2699C175.63 62.9161 176.335 63.4278 177.126 63.7681C177.294 63.8321 177.462 63.8801 177.638 63.9281C178.3 64.0785 178.986 64.0951 179.655 63.977C180.324 63.8588 180.963 63.6082 181.534 63.24C183.572 61.9081 185.008 59.8319 185.535 57.4551C186.057 55.4818 185.948 53.3944 185.223 51.4862V51.4862ZM184.423 57.1911C184.059 58.7517 183.282 60.1859 182.174 61.3437C181.653 61.9517 180.98 62.4121 180.225 62.6789C179.47 62.9456 178.657 63.0095 177.87 62.8639C175.181 62.1998 173.781 58.5753 174.725 54.7827C175.129 53.0195 176.071 51.4255 177.422 50.2221C177.93 49.7413 178.546 49.3894 179.219 49.1958C179.891 49.0023 180.6 48.9729 181.286 49.1099C181.419 49.1415 181.55 49.1816 181.678 49.2299C182.258 49.4769 182.779 49.8422 183.209 50.3024C183.639 50.7626 183.968 51.3076 184.175 51.9023C184.346 52.3232 184.474 52.7601 184.559 53.2065C184.814 54.5265 184.779 55.8863 184.455 57.1911H184.423Z" fill="#6DDAD3"/>
<path d="M169.284 53.9426L168.764 52.9825C170.18 52.1823 173.269 51.3822 174.813 53.8626L173.885 54.4387C172.501 52.2144 169.42 53.8706 169.284 53.9426Z" fill="#6DDAD3"/>
<path d="M154.939 48.9019L154.627 49.95L153.898 49.734C152.098 49.2059 149.442 48.4378 146.793 47.7017L145.513 47.3496C145.713 47.0376 145.921 46.7175 146.121 46.3815L146.769 46.5655C149.97 47.4457 153.066 48.3498 154.346 48.7258L154.939 48.9019Z" fill="#6DDAD3"/>
<g opacity="0.3">
<path opacity="0.3" d="M196.904 86.7875C188.933 88.5432 180.619 87.8956 173.016 84.9264C165.412 81.9573 158.86 76.8001 154.187 70.1069C149.515 63.4138 146.932 55.4854 146.766 47.3244C146.6 39.1634 148.857 31.1363 153.253 24.2583C157.649 17.3803 163.985 11.9604 171.462 8.68386C178.938 5.40735 187.218 4.42145 195.254 5.85085C203.291 7.28024 210.723 11.0607 216.611 16.7142C222.499 22.3677 226.578 29.6403 228.333 37.6122C229.499 42.9048 229.611 48.3752 228.662 53.711C227.714 59.0469 225.723 64.1436 222.805 68.7101C219.886 73.2766 216.097 77.2234 211.653 80.3252C207.209 83.427 202.197 85.6229 196.904 86.7875V86.7875Z" fill="white"/>
<path opacity="0.3" d="M151.833 66.2965C157.061 75.8394 165.844 82.9333 176.274 86.0361C186.703 89.139 197.936 88.0001 207.53 82.8669L151.833 66.2965Z" fill="#EBEBEB"/>
<path opacity="0.3" d="M153.018 24.6663L229.301 47.3656C229.367 44.088 229.045 40.814 228.341 37.6122C227.543 33.939 226.237 30.395 224.46 27.0826L168.148 10.3201C161.961 13.7295 156.751 18.6689 153.018 24.6663V24.6663Z" fill="#EBEBEB"/>
<path opacity="0.3" d="M147.065 51.3022L219.724 72.9055C221.455 70.8263 222.98 68.5833 224.276 66.2085L146.905 43.181C146.682 45.8865 146.736 48.6076 147.065 51.3022Z" fill="#EBEBEB"/>
<path opacity="0.3" d="M150.377 29.659L228.789 52.9985C228.869 52.5024 228.941 52.0063 228.997 51.5103L151.001 28.3068C150.785 28.7469 150.569 29.1949 150.377 29.659Z" fill="#EBEBEB"/>
<path opacity="0.3" d="M181.206 5.79143L216.011 16.145C215.107 15.3049 214.155 14.5447 213.171 13.7446L184.903 5.34337C183.664 5.42923 182.43 5.57879 181.206 5.79143Z" fill="#EBEBEB"/>
</g>
<path d="M202.585 137.805L213.181 135.471L202.919 88.8768L192.323 91.2103L202.585 137.805Z" fill="#EBEBEB"/>
<path d="M232.846 36.62C230.895 27.7584 226.359 19.6745 219.814 13.3904C213.268 7.10636 205.006 2.90442 196.072 1.31594C187.138 -0.272531 177.934 0.823806 169.623 4.46632C161.313 8.10884 154.269 14.1339 149.382 21.7797C144.496 29.4255 141.986 38.3486 142.171 47.4206C142.356 56.4926 145.227 65.3061 150.42 72.7466C155.614 80.187 162.898 85.9203 171.35 89.2214C179.802 92.5225 189.043 93.2431 197.905 91.2922C209.786 88.6721 220.141 81.4413 226.693 71.1894C233.245 60.9374 235.458 48.5032 232.846 36.62V36.62ZM196.905 86.7875C188.933 88.5448 180.619 87.8986 173.015 84.9307C165.411 81.9628 158.857 76.8064 154.184 70.1138C149.51 63.4211 146.926 55.4928 146.759 47.3316C146.591 39.1703 148.848 31.1427 153.243 24.264C157.638 17.3853 163.974 11.9645 171.451 8.68715C178.927 5.4098 187.207 4.42315 195.244 5.85196C203.281 7.28077 210.714 11.0609 216.602 16.7142C222.491 22.3675 226.57 29.6401 228.325 37.6122C229.491 42.9042 229.604 48.3741 228.656 53.7095C227.708 59.0449 225.718 64.1413 222.8 68.7078C219.882 73.2742 216.094 77.2211 211.651 80.3233C207.207 83.4254 202.197 85.622 196.905 86.7875V86.7875Z" fill="#455A64"/>
<path d="M206.962 170.592L222.988 167.063L213.899 125.753L197.865 129.282L206.962 170.592Z" fill="#263238"/>
<path d="M213.955 41.0767C213.938 41.0298 213.924 40.9816 213.915 40.9327C213.723 40.2446 214.123 41.5968 213.979 41.1487C213.835 40.7006 213.627 40.0685 213.427 39.5485C212.727 37.6923 211.87 35.8989 210.866 34.1877C210.73 33.9476 210.578 33.7076 210.442 33.4676C210.394 33.3875 210.794 34.0276 210.442 33.5236L210.162 33.0915C209.794 32.5394 209.418 31.9953 209.026 31.4913C208.159 30.3204 207.216 29.2084 206.202 28.1628L205.465 27.4267C205.129 27.0986 205.858 27.7867 205.393 27.3627L204.929 26.9386C204.329 26.4185 203.713 25.9144 203.073 25.4344C202.433 24.9543 201.673 24.4262 200.945 23.9701C200.609 23.7621 200.273 23.5621 199.929 23.3701C199.337 23.026 200.185 23.4901 199.745 23.266L199.113 22.946C197.201 22.0055 195.202 21.2551 193.144 20.7057H193.04L192.816 20.6577L191.895 20.4576C191.295 20.3376 190.703 20.2336 190.095 20.1456C188.824 19.9637 187.545 19.8462 186.263 19.7935C185.906 19.7531 185.562 19.6429 185.248 19.4692C184.934 19.2955 184.658 19.0617 184.435 18.7813C183.984 18.2148 183.777 17.4924 183.858 16.7731C183.94 16.0537 184.304 15.3962 184.871 14.9453C185.437 14.4944 186.159 14.287 186.879 14.3687C195.054 14.6216 202.872 17.7788 208.93 23.274C212.955 27.0432 216.102 31.6514 218.147 36.7721C218.616 37.9152 219.006 39.0887 219.316 40.2846C219.426 40.9994 219.249 41.729 218.823 42.3138C218.398 42.8985 217.758 43.2909 217.043 43.4051C216.331 43.5009 215.608 43.3182 215.027 42.8949C214.446 42.4716 214.05 41.8404 213.923 41.1327L213.955 41.0767Z" fill="white"/>
<path d="M215.075 49.1179C215.157 49.644 215.392 50.1342 215.752 50.5263C216.112 50.9185 216.581 51.1949 217.098 51.3205C217.615 51.4462 218.158 51.4154 218.658 51.2321C219.158 51.0488 219.592 50.7213 219.905 50.291C220.219 49.8607 220.397 49.347 220.419 48.8151C220.44 48.2832 220.303 47.7569 220.024 47.3031C219.746 46.8492 219.339 46.4882 218.856 46.2657C218.372 46.0432 217.833 45.9693 217.308 46.0534C216.606 46.1656 215.978 46.5509 215.559 47.1252C215.141 47.6994 214.967 48.4158 215.075 49.1179V49.1179Z" fill="white"/>
<path d="M242.159 145.22C242.159 145.22 253.617 126.385 239.351 108.415C233.478 101.022 219.62 87.7637 191.504 89.6119C184.831 90.052 175.637 95.4048 186.791 98.6453C194.712 100.95 200.433 100.013 204.802 102.19C204.802 102.19 193.912 110.391 194.616 117.056C194.928 120.032 195.16 126.537 196.881 132.73C196.881 132.73 199.137 134.331 200.969 134.059C200.969 134.059 205.906 148.301 223.661 152.677L242.159 145.22Z" fill="#D3766A"/>
<path d="M233.326 105.998C228.733 104.166 218.924 100.454 209.843 100.198C199.753 99.9175 180.238 102.102 180.118 109.551C180.022 115.016 187.543 114.832 187.543 114.832C187.543 114.832 179.67 117.432 180.67 122.385C181.574 126.898 187.383 126.385 187.383 126.385C187.383 126.385 182.879 128.786 184.591 132.962C186.647 137.987 195.744 132.162 202.193 135.427C203.682 136.195 233.326 105.998 233.326 105.998Z" fill="#D3766A"/>
<path d="M211.307 110.903C206.706 109.895 195.657 110.279 187.639 114.656C187.455 114.752 187.431 114.944 187.639 114.888C195.343 112.641 203.29 111.335 211.307 110.999C211.379 110.999 211.379 110.959 211.307 110.903Z" fill="#263238"/>
<path d="M210.747 121.081C206.682 120.617 195.312 121.521 187.343 126.233C187.159 126.337 187.151 126.529 187.343 126.465C194.925 123.823 202.781 122.049 210.763 121.177C210.775 121.175 210.787 121.167 210.794 121.157C210.802 121.146 210.805 121.133 210.803 121.121C210.801 121.108 210.793 121.097 210.783 121.089C210.772 121.082 210.759 121.079 210.747 121.081V121.081Z" fill="#263238"/>
<path d="M227.125 153.902C223.052 152.935 219.12 151.448 215.427 149.477C211.708 147.465 208.417 144.747 205.738 141.476C204.937 140.476 204.137 139.435 203.441 138.371C202.745 137.307 201.977 136.099 201.153 135.043C201.089 134.963 200.937 135.043 200.985 135.115C201.912 137.336 203.053 139.461 204.393 141.46C205.594 143.329 207.03 145.036 208.666 146.54C211.895 149.413 215.72 151.534 219.868 152.749C222.223 153.405 224.633 153.842 227.069 154.054C227.189 154.086 227.237 153.926 227.125 153.902Z" fill="#263238"/>
<path d="M110.332 93.6286C89.7205 121.305 55.3234 193.435 50.2666 204.045C46.8341 211.246 84.4637 230.209 86.0559 224.976C88.1043 218.271 121.749 129.762 126.462 97.4931C129.038 79.8025 117.461 84.0511 110.332 93.6286Z" fill="#D3766A"/>
<path d="M87.0722 221.376C86.2 227.897 81.7674 241.035 78.4709 243.043C75.1744 245.051 57.8518 244.643 49.1225 244.643C40.3932 244.643 38.721 242.203 38.825 239.202C38.929 236.202 57.2837 235.626 57.2837 235.626C57.2837 235.626 32.8161 242.603 26.6632 243.779C20.5103 244.955 6.34013 248.5 4.25982 243.403C3.33969 241.099 7.22027 238.77 7.22027 238.77C7.22027 238.77 1.27538 240.506 0.323238 237.554C-0.748922 234.186 3.97978 232.337 3.97978 232.337C3.97978 232.337 0.259226 233.081 0.171213 230.337C0.0111894 224.176 23.2787 221.168 23.2787 221.168C23.2787 221.168 5.468 229.841 4.87592 224.832C4.0758 217.911 40.5932 210.318 44.3938 207.302C47.1591 204.996 49.7455 202.485 52.131 199.788L87.0722 221.376Z" fill="#D3766A"/>
<path d="M38.9531 240.69C38.8914 240.265 38.9318 239.832 39.0709 239.426C39.2101 239.019 39.444 238.652 39.7533 238.354C40.3807 237.779 41.1001 237.314 41.8816 236.978C43.4958 236.292 45.1698 235.756 46.8823 235.378C50.3228 234.506 53.8514 233.889 57.3639 232.977C53.7431 232.923 50.13 233.326 46.6103 234.177C44.8118 234.59 43.0801 235.253 41.4655 236.146C40.6296 236.605 39.897 237.232 39.3132 237.986C39.0262 238.368 38.8423 238.818 38.7792 239.291C38.7162 239.765 38.7761 240.247 38.9531 240.69V240.69Z" fill="#263238"/>
<path d="M7.27588 238.738C9.79626 238.122 12.2766 237.418 14.749 236.698C17.2214 235.978 19.6857 235.226 22.1501 234.482L29.5192 232.177C31.9756 231.377 34.4319 230.641 36.9123 229.897C34.3373 230.18 31.7845 230.637 29.2712 231.265C26.7428 231.841 24.2624 232.561 21.79 233.313C19.3177 234.066 16.8693 234.914 14.453 235.81C12.0366 236.706 9.59623 237.65 7.27588 238.738Z" fill="#263238"/>
<path d="M30.9759 223.776C28.6025 223.925 26.2436 224.251 23.9189 224.752C21.5861 225.216 19.2809 225.809 17.0138 226.528C14.7413 227.233 12.5107 228.067 10.3329 229.025C8.14721 229.959 6.03204 231.05 4.00391 232.289C6.25224 231.489 8.44457 230.649 10.6769 229.889C12.9092 229.129 15.1336 228.377 17.3819 227.689C19.6302 227 21.8786 226.32 24.1429 225.656C26.4073 224.992 28.6796 224.416 30.9759 223.776Z" fill="#263238"/>
<path d="M27.3755 217.951C23.5528 218.259 19.7869 219.066 16.1738 220.351C12.5254 221.56 9.05234 223.244 5.84424 225.36C9.46078 224.072 12.9813 222.712 16.5738 221.512C20.1664 220.311 23.7269 219.127 27.3755 217.951Z" fill="#263238"/>
<path d="M119.093 141.068L77.3267 139.915C77.3267 139.915 100.09 103.686 112.284 90.3961C125.014 76.554 131.943 77.7462 127.598 102.27C123.222 126.962 119.093 141.068 119.093 141.068Z" fill="#6DDAD3"/>
<path d="M93.2493 133.779C92.1221 134.271 91.067 134.915 90.1128 135.691C92.5516 135.297 94.8474 134.28 96.7778 132.738C95.5577 132.913 94.3692 133.264 93.2493 133.779ZM116.573 107.247C116.09 106.114 115.446 105.058 114.66 104.11C115.045 106.551 116.066 108.847 117.621 110.767C117.445 109.549 117.092 108.363 116.573 107.247V107.247ZM97.3139 115.12C96.8576 116.262 96.5667 117.464 96.4497 118.688C97.8999 116.689 98.7994 114.344 99.0581 111.887C98.3213 112.873 97.7336 113.963 97.3139 115.12V115.12ZM115.717 131.474C115.257 132.618 114.968 133.823 114.86 135.051C116.302 133.047 117.2 130.704 117.469 128.25C116.729 129.235 116.133 130.321 115.701 131.474H115.717ZM127.958 83.9071C127.758 84.3232 127.574 84.7472 127.398 85.1793C126.947 86.3232 126.656 87.5241 126.534 88.7478C127.271 87.7706 127.864 86.6928 128.294 85.5474C128.335 85.4433 128.367 85.3473 128.399 85.2433C128.284 84.7859 128.132 84.3389 127.942 83.9071H127.958Z" fill="white"/>
<path d="M116.477 133.803C115.484 133.658 114.468 133.659 113.476 133.61L110.396 133.442C108.326 133.341 106.248 133.258 104.163 133.194C100.002 133.066 95.8495 132.922 91.6969 132.866C90.5527 132.866 89.4086 132.866 88.2644 132.866C87.1202 132.866 85.864 132.986 84.6638 132.994C84.5918 132.994 84.5998 133.106 84.6638 133.106C85.688 133.17 86.7122 133.322 87.7443 133.386C88.7765 133.45 89.8486 133.514 90.9048 133.554C92.9851 133.634 95.0654 133.707 97.1457 133.755C101.234 133.851 105.331 133.963 109.42 133.971H112.892C114.084 133.971 115.292 134.035 116.493 133.931C116.525 133.907 116.541 133.811 116.477 133.803Z" fill="#263238"/>
<path d="M127.19 113.904C127.19 113.824 127.094 113.776 127.054 113.856C126.279 115.283 125.616 116.767 125.07 118.296C125.214 117.568 125.382 116.84 125.518 116.104C125.974 113.752 126.39 111.383 126.854 109.031C126.849 109.017 126.84 109.004 126.828 108.996C126.815 108.987 126.801 108.982 126.786 108.982C126.771 108.982 126.756 108.987 126.744 108.996C126.732 109.004 126.723 109.017 126.718 109.031C125.638 113.079 124.382 117.088 123.421 121.169C122.461 125.249 121.493 129.33 120.597 133.426C120.109 135.691 119.669 138.515 119.173 140.772C117.965 140.916 116.412 140.772 115.108 140.94C114.996 140.94 115.028 141.14 115.108 141.14C116.484 141.18 118.125 141.492 119.573 141.404C119.757 141.404 123.261 126.849 124.718 119.88C125.614 117.896 126.446 115.912 127.19 113.904Z" fill="#263238"/>
<path d="M156.899 91.2762C156.315 93.1885 155.651 95.0768 154.891 96.925C154.256 98.5901 153.477 100.197 152.562 101.726C150.834 104.454 148.178 106.71 144.809 106.702C141.609 106.702 138.68 104.846 136.632 102.478C134.392 99.8935 132.903 96.653 131.567 93.5325C130.767 91.6042 129.967 89.6359 129.327 87.6436C128.999 86.6355 128.655 85.6273 128.367 84.6032C128.079 83.579 127.831 82.5469 127.478 81.5467C127.478 81.4667 127.302 81.4747 127.326 81.5467C127.919 83.8511 129.639 91.1482 130.327 93.0044C131.591 96.4049 133.015 99.9175 135.296 102.782C137.456 105.486 140.392 107.535 143.905 107.871C147.417 108.207 150.426 106.358 152.362 103.574C153.501 101.82 154.389 99.9162 155.003 97.9172C155.747 95.7248 156.371 93.4765 156.939 91.2282C156.971 91.2602 156.899 91.2522 156.899 91.2762Z" fill="#263238"/>
</svg>
