<svg width="557" height="60" viewBox="0 0 557 60" fill="none" xmlns="http://www.w3.org/2000/svg">
<path d="M2.5166 20H0.441406V2.15332H10.3779V3.98438H2.5166V10.5273H9.90186V12.3462H2.5166V20ZM24.7334 15.8618H22.0601V20H20.0825V15.8618H11.4521V14.1528L19.9482 2.05566H22.0601V14.0308H24.7334V15.8618ZM20.0825 14.0308V8.1958C20.0825 7.74821 20.0866 7.34538 20.0947 6.9873C20.1029 6.62109 20.1151 6.28337 20.1313 5.97412C20.1476 5.65674 20.1598 5.35563 20.168 5.0708C20.1842 4.78597 20.1965 4.50521 20.2046 4.22852H20.1069C19.9523 4.55404 19.7733 4.8999 19.5698 5.26611C19.3745 5.62419 19.1751 5.94564 18.9717 6.23047L13.4663 14.0308H20.0825ZM27.6631 20V2.15332H29.7383V18.1445H37.6606V20H27.6631ZM42.4458 6.62109V20H40.4194V6.62109H42.4458ZM41.457 1.61621C41.7907 1.61621 42.0755 1.72607 42.3115 1.9458C42.5557 2.15739 42.6777 2.49105 42.6777 2.94678C42.6777 3.39437 42.5557 3.72803 42.3115 3.94775C42.0755 4.16748 41.7907 4.27734 41.457 4.27734C41.1071 4.27734 40.8141 4.16748 40.5781 3.94775C40.3503 3.72803 40.2363 3.39437 40.2363 2.94678C40.2363 2.49105 40.3503 2.15739 40.5781 1.9458C40.8141 1.72607 41.1071 1.61621 41.457 1.61621ZM52.6997 8.20801H49.3672V20H47.3408V8.20801H44.9727V7.23145L47.3408 6.56006V5.66895C47.3408 4.5459 47.5076 3.63444 47.8413 2.93457C48.175 2.22656 48.6592 1.70573 49.2939 1.37207C49.9287 1.03841 50.7018 0.871582 51.6133 0.871582C52.126 0.871582 52.5939 0.916341 53.0171 1.00586C53.4484 1.09538 53.8268 1.1971 54.1523 1.31104L53.6274 2.91016C53.3507 2.82064 53.0374 2.73926 52.6875 2.66602C52.3457 2.58464 51.9958 2.54395 51.6377 2.54395C50.8646 2.54395 50.2909 2.79622 49.9165 3.30078C49.5503 3.7972 49.3672 4.57845 49.3672 5.64453V6.62109H52.6997V8.20801ZM60.3169 6.37695C61.4562 6.37695 62.4328 6.62923 63.2466 7.13379C64.0604 7.63835 64.6829 8.34635 65.1143 9.25781C65.5456 10.1611 65.7612 11.2191 65.7612 12.4316V13.689H56.5205C56.5449 15.2596 56.9355 16.4559 57.6924 17.2778C58.4492 18.0998 59.5153 18.5107 60.8906 18.5107C61.737 18.5107 62.4857 18.4334 63.1367 18.2788C63.7878 18.1242 64.4632 17.8963 65.1631 17.5952V19.3774C64.4876 19.6785 63.8162 19.8983 63.1489 20.0366C62.4897 20.175 61.7085 20.2441 60.8052 20.2441C59.5194 20.2441 58.3963 19.9837 57.436 19.4629C56.4839 18.9339 55.7433 18.1608 55.2144 17.1436C54.6854 16.1263 54.4209 14.8812 54.4209 13.4082C54.4209 11.9678 54.661 10.7227 55.1411 9.67285C55.6294 8.61491 56.313 7.80111 57.1919 7.23145C58.0789 6.66178 59.1206 6.37695 60.3169 6.37695ZM60.2925 8.03711C59.2101 8.03711 58.3475 8.39111 57.7046 9.09912C57.0617 9.80713 56.6792 10.7959 56.5571 12.0654H63.6372C63.6291 11.2679 63.5029 10.568 63.2588 9.96582C63.0228 9.35547 62.6606 8.88346 62.1724 8.5498C61.6841 8.20801 61.0575 8.03711 60.2925 8.03711ZM80.8491 6.37695C81.9884 6.37695 82.965 6.62923 83.7788 7.13379C84.5926 7.63835 85.2152 8.34635 85.6465 9.25781C86.0778 10.1611 86.2935 11.2191 86.2935 12.4316V13.689H77.0527C77.0771 15.2596 77.4678 16.4559 78.2246 17.2778C78.9814 18.0998 80.0475 18.5107 81.4229 18.5107C82.2692 18.5107 83.0179 18.4334 83.6689 18.2788C84.32 18.1242 84.9954 17.8963 85.6953 17.5952V19.3774C85.0199 19.6785 84.3485 19.8983 83.6812 20.0366C83.022 20.175 82.2407 20.2441 81.3374 20.2441C80.0516 20.2441 78.9285 19.9837 77.9683 19.4629C77.0161 18.9339 76.2756 18.1608 75.7466 17.1436C75.2176 16.1263 74.9531 14.8812 74.9531 13.4082C74.9531 11.9678 75.1932 10.7227 75.6733 9.67285C76.1616 8.61491 76.8452 7.80111 77.7241 7.23145C78.6112 6.66178 79.6528 6.37695 80.8491 6.37695ZM80.8247 8.03711C79.7424 8.03711 78.8797 8.39111 78.2368 9.09912C77.5939 9.80713 77.2114 10.7959 77.0894 12.0654H84.1694C84.1613 11.2679 84.0352 10.568 83.791 9.96582C83.555 9.35547 83.1929 8.88346 82.7046 8.5498C82.2163 8.20801 81.5897 8.03711 80.8247 8.03711ZM84.2061 0.847168V1.09131C84.0433 1.32731 83.8195 1.61214 83.5347 1.9458C83.258 2.27132 82.9487 2.61719 82.6069 2.9834C82.2651 3.34147 81.9193 3.68327 81.5693 4.00879C81.2275 4.33431 80.9102 4.61507 80.6172 4.85107H79.2622V4.55811C79.5226 4.24886 79.8075 3.87858 80.1167 3.44727C80.4259 3.00781 80.7271 2.56022 81.02 2.10449C81.313 1.64062 81.5571 1.22152 81.7524 0.847168H84.2061ZM107.277 6.62109V20H105.617L105.324 18.1201H105.214C104.938 18.584 104.58 18.9746 104.14 19.292C103.701 19.6094 103.204 19.8454 102.651 20C102.106 20.1628 101.524 20.2441 100.905 20.2441C99.8473 20.2441 98.9603 20.0732 98.2441 19.7314C97.528 19.3896 96.9868 18.8607 96.6206 18.1445C96.2625 17.4284 96.0835 16.5088 96.0835 15.3857V6.62109H98.1343V15.2393C98.1343 16.3542 98.3866 17.1883 98.8911 17.7417C99.3957 18.2869 100.165 18.5596 101.198 18.5596C102.191 18.5596 102.98 18.3724 103.566 17.998C104.16 17.6237 104.588 17.0744 104.848 16.3501C105.109 15.6177 105.239 14.7225 105.239 13.6646V6.62109H107.277ZM126.088 6.37695C127.561 6.37695 128.672 6.76351 129.421 7.53662C130.17 8.3016 130.544 9.53451 130.544 11.2354V20H128.542V11.333C128.542 10.2507 128.306 9.44092 127.834 8.90381C127.37 8.35856 126.678 8.08594 125.759 8.08594C124.465 8.08594 123.525 8.46029 122.939 9.20898C122.353 9.95768 122.06 11.0604 122.06 12.5171V20H120.046V11.333C120.046 10.6087 119.94 10.0065 119.729 9.52637C119.525 9.04622 119.216 8.68815 118.801 8.45215C118.394 8.20801 117.877 8.08594 117.25 8.08594C116.363 8.08594 115.651 8.26904 115.114 8.63525C114.577 9.00146 114.187 9.54671 113.942 10.271C113.706 10.9871 113.588 11.8701 113.588 12.9199V20H111.562V6.62109H113.198L113.503 8.51318H113.613C113.881 8.04932 114.219 7.65869 114.626 7.34131C115.033 7.02393 115.489 6.78385 115.993 6.62109C116.498 6.45833 117.035 6.37695 117.604 6.37695C118.622 6.37695 119.472 6.5682 120.156 6.95068C120.847 7.32503 121.348 7.89876 121.657 8.67188H121.767C122.207 7.89876 122.809 7.32503 123.574 6.95068C124.339 6.5682 125.177 6.37695 126.088 6.37695ZM139.711 6.40137C141.306 6.40137 142.491 6.75944 143.264 7.47559C144.037 8.19173 144.423 9.33512 144.423 10.9058V20H142.946L142.556 18.0225H142.458C142.084 18.5107 141.693 18.9217 141.286 19.2554C140.879 19.5809 140.407 19.8291 139.87 20C139.341 20.1628 138.69 20.2441 137.917 20.2441C137.103 20.2441 136.379 20.1017 135.744 19.8169C135.118 19.5321 134.621 19.1007 134.255 18.5229C133.897 17.9451 133.718 17.2127 133.718 16.3257C133.718 14.991 134.247 13.9657 135.305 13.2495C136.363 12.5334 137.974 12.1427 140.139 12.0776L142.446 11.98V11.1621C142.446 10.0065 142.198 9.19678 141.701 8.73291C141.205 8.26904 140.505 8.03711 139.602 8.03711C138.902 8.03711 138.234 8.13883 137.6 8.34229C136.965 8.54574 136.363 8.78581 135.793 9.0625L135.17 7.52441C135.773 7.21517 136.464 6.95068 137.246 6.73096C138.027 6.51123 138.849 6.40137 139.711 6.40137ZM142.421 13.4082L140.383 13.4937C138.715 13.5588 137.539 13.8314 136.855 14.3115C136.171 14.7917 135.83 15.4712 135.83 16.3501C135.83 17.1151 136.062 17.6807 136.525 18.0469C136.989 18.4131 137.604 18.5962 138.369 18.5962C139.557 18.5962 140.529 18.2666 141.286 17.6074C142.043 16.9482 142.421 15.9595 142.421 14.6411V13.4082ZM160.244 6.37695C161.383 6.37695 162.36 6.62923 163.173 7.13379C163.987 7.63835 164.61 8.34635 165.041 9.25781C165.472 10.1611 165.688 11.2191 165.688 12.4316V13.689H156.447C156.472 15.2596 156.862 16.4559 157.619 17.2778C158.376 18.0998 159.442 18.5107 160.817 18.5107C161.664 18.5107 162.412 18.4334 163.063 18.2788C163.715 18.1242 164.39 17.8963 165.09 17.5952V19.3774C164.414 19.6785 163.743 19.8983 163.076 20.0366C162.417 20.175 161.635 20.2441 160.732 20.2441C159.446 20.2441 158.323 19.9837 157.363 19.4629C156.411 18.9339 155.67 18.1608 155.141 17.1436C154.612 16.1263 154.348 14.8812 154.348 13.4082C154.348 11.9678 154.588 10.7227 155.068 9.67285C155.556 8.61491 156.24 7.80111 157.119 7.23145C158.006 6.66178 159.047 6.37695 160.244 6.37695ZM160.219 8.03711C159.137 8.03711 158.274 8.39111 157.631 9.09912C156.988 9.80713 156.606 10.7959 156.484 12.0654H163.564C163.556 11.2679 163.43 10.568 163.186 9.96582C162.95 9.35547 162.587 8.88346 162.099 8.5498C161.611 8.20801 160.984 8.03711 160.219 8.03711ZM183.657 6.37695C185.13 6.37695 186.241 6.76351 186.989 7.53662C187.738 8.3016 188.112 9.53451 188.112 11.2354V20H186.11V11.333C186.11 10.2507 185.874 9.44092 185.402 8.90381C184.938 8.35856 184.247 8.08594 183.327 8.08594C182.033 8.08594 181.093 8.46029 180.507 9.20898C179.921 9.95768 179.628 11.0604 179.628 12.5171V20H177.614V11.333C177.614 10.6087 177.508 10.0065 177.297 9.52637C177.093 9.04622 176.784 8.68815 176.369 8.45215C175.962 8.20801 175.445 8.08594 174.819 8.08594C173.932 8.08594 173.22 8.26904 172.683 8.63525C172.146 9.00146 171.755 9.54671 171.511 10.271C171.275 10.9871 171.157 11.8701 171.157 12.9199V20H169.13V6.62109H170.766L171.071 8.51318H171.181C171.45 8.04932 171.787 7.65869 172.194 7.34131C172.601 7.02393 173.057 6.78385 173.562 6.62109C174.066 6.45833 174.603 6.37695 175.173 6.37695C176.19 6.37695 177.041 6.5682 177.724 6.95068C178.416 7.32503 178.916 7.89876 179.226 8.67188H179.335C179.775 7.89876 180.377 7.32503 181.142 6.95068C181.907 6.5682 182.745 6.37695 183.657 6.37695ZM198.562 6.37695C200.23 6.37695 201.56 6.95068 202.553 8.09814C203.546 9.24561 204.042 10.9709 204.042 13.2739C204.042 14.7957 203.815 16.0734 203.359 17.1069C202.903 18.1405 202.26 18.9217 201.43 19.4507C200.608 19.9797 199.636 20.2441 198.513 20.2441C197.805 20.2441 197.182 20.1506 196.645 19.9634C196.108 19.7762 195.648 19.5239 195.266 19.2065C194.883 18.8892 194.566 18.5433 194.313 18.1689H194.167C194.191 18.4863 194.22 18.8688 194.252 19.3164C194.293 19.764 194.313 20.1546 194.313 20.4883V25.9814H192.275V6.62109H193.947L194.216 8.59863H194.313C194.574 8.19173 194.891 7.82145 195.266 7.48779C195.64 7.146 196.096 6.87744 196.633 6.68213C197.178 6.47868 197.821 6.37695 198.562 6.37695ZM198.208 8.08594C197.28 8.08594 196.531 8.26497 195.961 8.62305C195.4 8.98112 194.989 9.51823 194.729 10.2344C194.468 10.9424 194.33 11.8335 194.313 12.9077V13.2983C194.313 14.4295 194.436 15.3857 194.68 16.167C194.932 16.9482 195.343 17.5423 195.913 17.9492C196.49 18.3561 197.264 18.5596 198.232 18.5596C199.062 18.5596 199.754 18.3358 200.307 17.8882C200.861 17.4406 201.271 16.818 201.54 16.0205C201.817 15.2148 201.955 14.2912 201.955 13.2495C201.955 11.6707 201.646 10.4175 201.027 9.48975C200.417 8.55387 199.477 8.08594 198.208 8.08594ZM213.662 6.37695C213.93 6.37695 214.211 6.39323 214.504 6.42578C214.797 6.4502 215.057 6.48682 215.285 6.53564L215.029 8.41553C214.809 8.35856 214.565 8.3138 214.296 8.28125C214.028 8.2487 213.776 8.23242 213.54 8.23242C213.002 8.23242 212.494 8.34229 212.014 8.56201C211.542 8.7736 211.127 9.08285 210.769 9.48975C210.41 9.88851 210.13 10.3727 209.926 10.9424C209.723 11.5039 209.621 12.1305 209.621 12.8223V20H207.583V6.62109H209.267L209.487 9.08691H209.572C209.849 8.59049 210.183 8.13883 210.573 7.73193C210.964 7.31689 211.416 6.9873 211.928 6.74316C212.449 6.49902 213.027 6.37695 213.662 6.37695ZM222.963 6.37695C224.103 6.37695 225.079 6.62923 225.893 7.13379C226.707 7.63835 227.329 8.34635 227.761 9.25781C228.192 10.1611 228.408 11.2191 228.408 12.4316V13.689H219.167C219.191 15.2596 219.582 16.4559 220.339 17.2778C221.096 18.0998 222.162 18.5107 223.537 18.5107C224.383 18.5107 225.132 18.4334 225.783 18.2788C226.434 18.1242 227.11 17.8963 227.81 17.5952V19.3774C227.134 19.6785 226.463 19.8983 225.795 20.0366C225.136 20.175 224.355 20.2441 223.452 20.2441C222.166 20.2441 221.043 19.9837 220.083 19.4629C219.13 18.9339 218.39 18.1608 217.861 17.1436C217.332 16.1263 217.067 14.8812 217.067 13.4082C217.067 11.9678 217.307 10.7227 217.788 9.67285C218.276 8.61491 218.959 7.80111 219.838 7.23145C220.725 6.66178 221.767 6.37695 222.963 6.37695ZM222.939 8.03711C221.857 8.03711 220.994 8.39111 220.351 9.09912C219.708 9.80713 219.326 10.7959 219.204 12.0654H226.284C226.276 11.2679 226.149 10.568 225.905 9.96582C225.669 9.35547 225.307 8.88346 224.819 8.5498C224.331 8.20801 223.704 8.03711 222.939 8.03711ZM240.505 16.3379C240.505 17.1924 240.289 17.9126 239.858 18.4985C239.435 19.0763 238.824 19.5117 238.027 19.8047C237.237 20.0977 236.293 20.2441 235.195 20.2441C234.259 20.2441 233.449 20.1709 232.766 20.0244C232.082 19.8779 231.484 19.6704 230.971 19.4019V17.5342C231.516 17.8027 232.167 18.0469 232.924 18.2666C233.681 18.4863 234.454 18.5962 235.244 18.5962C236.399 18.5962 237.237 18.409 237.758 18.0347C238.279 17.6603 238.54 17.1517 238.54 16.5088C238.54 16.1426 238.434 15.8211 238.222 15.5444C238.019 15.2596 237.673 14.987 237.185 14.7266C236.696 14.458 236.021 14.165 235.158 13.8477C234.304 13.5221 233.563 13.2007 232.937 12.8833C232.318 12.5578 231.838 12.1631 231.496 11.6992C231.162 11.2354 230.996 10.6331 230.996 9.89258C230.996 8.76139 231.451 7.89469 232.363 7.29248C233.282 6.68213 234.487 6.37695 235.976 6.37695C236.782 6.37695 237.535 6.45833 238.234 6.62109C238.942 6.77572 239.602 6.9873 240.212 7.25586L239.528 8.87939C238.975 8.64339 238.385 8.44401 237.758 8.28125C237.132 8.11849 236.493 8.03711 235.842 8.03711C234.906 8.03711 234.186 8.19173 233.681 8.50098C233.185 8.81022 232.937 9.2334 232.937 9.77051C232.937 10.1855 233.05 10.5273 233.278 10.7959C233.514 11.0645 233.889 11.3167 234.401 11.5527C234.914 11.7887 235.59 12.0654 236.428 12.3828C237.266 12.6921 237.99 13.0135 238.601 13.3472C239.211 13.6727 239.679 14.0715 240.004 14.5435C240.338 15.0073 240.505 15.6055 240.505 16.3379ZM248.769 6.40137C250.364 6.40137 251.548 6.75944 252.321 7.47559C253.094 8.19173 253.481 9.33512 253.481 10.9058V20H252.004L251.613 18.0225H251.516C251.141 18.5107 250.751 18.9217 250.344 19.2554C249.937 19.5809 249.465 19.8291 248.928 20C248.399 20.1628 247.748 20.2441 246.975 20.2441C246.161 20.2441 245.437 20.1017 244.802 19.8169C244.175 19.5321 243.679 19.1007 243.312 18.5229C242.954 17.9451 242.775 17.2127 242.775 16.3257C242.775 14.991 243.304 13.9657 244.362 13.2495C245.42 12.5334 247.032 12.1427 249.196 12.0776L251.503 11.98V11.1621C251.503 10.0065 251.255 9.19678 250.759 8.73291C250.262 8.26904 249.562 8.03711 248.659 8.03711C247.959 8.03711 247.292 8.13883 246.657 8.34229C246.022 8.54574 245.42 8.78581 244.851 9.0625L244.228 7.52441C244.83 7.21517 245.522 6.95068 246.303 6.73096C247.084 6.51123 247.906 6.40137 248.769 6.40137ZM251.479 13.4082L249.44 13.4937C247.772 13.5588 246.596 13.8314 245.913 14.3115C245.229 14.7917 244.887 15.4712 244.887 16.3501C244.887 17.1151 245.119 17.6807 245.583 18.0469C246.047 18.4131 246.661 18.5962 247.426 18.5962C248.614 18.5962 249.587 18.2666 250.344 17.6074C251.101 16.9482 251.479 15.9595 251.479 14.6411V13.4082ZM268.911 20.2441C267.218 20.2441 265.875 19.6663 264.882 18.5107C263.898 17.3551 263.405 15.638 263.405 13.3594C263.405 11.0563 263.91 9.31885 264.919 8.14697C265.928 6.96696 267.271 6.37695 268.947 6.37695C269.655 6.37695 270.274 6.47054 270.803 6.65771C271.332 6.84489 271.787 7.09717 272.17 7.41455C272.552 7.7238 272.874 8.0778 273.134 8.47656H273.281C273.248 8.22428 273.216 7.87842 273.183 7.43896C273.151 6.99951 273.134 6.64144 273.134 6.36475V1.00586H275.161V20H273.525L273.22 18.0957H273.134C272.882 18.4945 272.561 18.8566 272.17 19.1821C271.787 19.5076 271.328 19.7681 270.791 19.9634C270.262 20.1506 269.635 20.2441 268.911 20.2441ZM269.228 18.5596C270.66 18.5596 271.674 18.1527 272.268 17.3389C272.862 16.5251 273.159 15.3166 273.159 13.7134V13.3472C273.159 11.6463 272.874 10.3402 272.304 9.42871C271.743 8.51725 270.717 8.06152 269.228 8.06152C267.983 8.06152 267.051 8.54167 266.433 9.50195C265.814 10.4541 265.505 11.7562 265.505 13.4082C265.505 15.0521 265.81 16.3216 266.42 17.2168C267.039 18.112 267.975 18.5596 269.228 18.5596ZM284.609 6.37695C285.748 6.37695 286.725 6.62923 287.539 7.13379C288.352 7.63835 288.975 8.34635 289.406 9.25781C289.838 10.1611 290.053 11.2191 290.053 12.4316V13.689H280.812C280.837 15.2596 281.228 16.4559 281.984 17.2778C282.741 18.0998 283.807 18.5107 285.183 18.5107C286.029 18.5107 286.778 18.4334 287.429 18.2788C288.08 18.1242 288.755 17.8963 289.455 17.5952V19.3774C288.78 19.6785 288.108 19.8983 287.441 20.0366C286.782 20.175 286 20.2441 285.097 20.2441C283.811 20.2441 282.688 19.9837 281.728 19.4629C280.776 18.9339 280.035 18.1608 279.506 17.1436C278.977 16.1263 278.713 14.8812 278.713 13.4082C278.713 11.9678 278.953 10.7227 279.433 9.67285C279.921 8.61491 280.605 7.80111 281.484 7.23145C282.371 6.66178 283.413 6.37695 284.609 6.37695ZM284.584 8.03711C283.502 8.03711 282.639 8.39111 281.997 9.09912C281.354 9.80713 280.971 10.7959 280.849 12.0654H287.929C287.921 11.2679 287.795 10.568 287.551 9.96582C287.315 9.35547 286.953 8.88346 286.464 8.5498C285.976 8.20801 285.349 8.03711 284.584 8.03711ZM304.995 6.40137C306.59 6.40137 307.774 6.75944 308.547 7.47559C309.32 8.19173 309.707 9.33512 309.707 10.9058V20H308.229L307.839 18.0225H307.741C307.367 18.5107 306.976 18.9217 306.569 19.2554C306.162 19.5809 305.69 19.8291 305.153 20C304.624 20.1628 303.973 20.2441 303.2 20.2441C302.386 20.2441 301.662 20.1017 301.027 19.8169C300.401 19.5321 299.904 19.1007 299.538 18.5229C299.18 17.9451 299.001 17.2127 299.001 16.3257C299.001 14.991 299.53 13.9657 300.588 13.2495C301.646 12.5334 303.257 12.1427 305.422 12.0776L307.729 11.98V11.1621C307.729 10.0065 307.481 9.19678 306.984 8.73291C306.488 8.26904 305.788 8.03711 304.885 8.03711C304.185 8.03711 303.518 8.13883 302.883 8.34229C302.248 8.54574 301.646 8.78581 301.076 9.0625L300.454 7.52441C301.056 7.21517 301.748 6.95068 302.529 6.73096C303.31 6.51123 304.132 6.40137 304.995 6.40137ZM307.705 13.4082L305.666 13.4937C303.998 13.5588 302.822 13.8314 302.138 14.3115C301.455 14.7917 301.113 15.4712 301.113 16.3501C301.113 17.1151 301.345 17.6807 301.809 18.0469C302.272 18.4131 302.887 18.5962 303.652 18.5962C304.84 18.5962 305.812 18.2666 306.569 17.6074C307.326 16.9482 307.705 15.9595 307.705 14.6411V13.4082ZM315.92 20H313.881V1.00586H315.92V20ZM331.252 6.62109V20H329.592L329.299 18.1201H329.189C328.912 18.584 328.554 18.9746 328.115 19.292C327.675 19.6094 327.179 19.8454 326.625 20C326.08 20.1628 325.498 20.2441 324.88 20.2441C323.822 20.2441 322.935 20.0732 322.219 19.7314C321.503 19.3896 320.961 18.8607 320.595 18.1445C320.237 17.4284 320.058 16.5088 320.058 15.3857V6.62109H322.109V15.2393C322.109 16.3542 322.361 17.1883 322.866 17.7417C323.37 18.2869 324.139 18.5596 325.173 18.5596C326.166 18.5596 326.955 18.3724 327.541 17.998C328.135 17.6237 328.562 17.0744 328.823 16.3501C329.083 15.6177 329.213 14.7225 329.213 13.6646V6.62109H331.252ZM339.272 26.0059C337.514 26.0059 336.159 25.6763 335.207 25.0171C334.255 24.366 333.779 23.4505 333.779 22.2705C333.779 21.4323 334.043 20.7161 334.572 20.1221C335.109 19.528 335.85 19.1333 336.794 18.938C336.444 18.7752 336.143 18.5311 335.891 18.2056C335.646 17.88 335.524 17.5057 335.524 17.0825C335.524 16.5942 335.659 16.167 335.927 15.8008C336.204 15.4264 336.623 15.0684 337.185 14.7266C336.485 14.4417 335.915 13.9616 335.476 13.2861C335.044 12.6025 334.829 11.8091 334.829 10.9058C334.829 9.94548 335.028 9.1276 335.427 8.45215C335.826 7.76855 336.403 7.24772 337.16 6.88965C337.917 6.53158 338.833 6.35254 339.907 6.35254C340.143 6.35254 340.379 6.36475 340.615 6.38916C340.859 6.40544 341.091 6.43392 341.311 6.47461C341.53 6.50716 341.722 6.54785 341.884 6.59668H346.474V7.90283L344.008 8.20801C344.252 8.52539 344.456 8.90788 344.619 9.35547C344.781 9.80306 344.863 10.2995 344.863 10.8447C344.863 12.1794 344.411 13.2414 343.508 14.0308C342.604 14.812 341.363 15.2026 339.785 15.2026C339.41 15.2026 339.028 15.1701 338.637 15.105C338.238 15.3247 337.933 15.5688 337.722 15.8374C337.518 16.106 337.417 16.4152 337.417 16.7651C337.417 17.0256 337.494 17.2331 337.648 17.3877C337.811 17.5423 338.043 17.6562 338.344 17.7295C338.645 17.7946 339.007 17.8271 339.431 17.8271H341.787C343.243 17.8271 344.358 18.1323 345.131 18.7427C345.913 19.353 346.303 20.2441 346.303 21.416C346.303 22.8971 345.701 24.0324 344.497 24.8218C343.292 25.6112 341.551 26.0059 339.272 26.0059ZM339.333 24.4189C340.44 24.4189 341.355 24.305 342.08 24.0771C342.812 23.8574 343.357 23.536 343.715 23.1128C344.082 22.6978 344.265 22.2013 344.265 21.6235C344.265 21.0864 344.143 20.6795 343.898 20.4028C343.654 20.1343 343.296 19.9552 342.824 19.8657C342.352 19.7681 341.774 19.7192 341.091 19.7192H338.771C338.169 19.7192 337.644 19.8128 337.197 20C336.749 20.1872 336.403 20.4639 336.159 20.8301C335.923 21.1963 335.805 21.652 335.805 22.1973C335.805 22.9215 336.11 23.4709 336.721 23.8452C337.331 24.2277 338.202 24.4189 339.333 24.4189ZM339.858 13.7256C340.826 13.7256 341.555 13.4814 342.043 12.9932C342.531 12.5049 342.775 11.7928 342.775 10.8569C342.775 9.85596 342.527 9.10726 342.031 8.61084C341.534 8.10628 340.802 7.854 339.833 7.854C338.906 7.854 338.19 8.11442 337.685 8.63525C337.189 9.14795 336.94 9.90072 336.94 10.8936C336.94 11.805 337.193 12.5049 337.697 12.9932C338.202 13.4814 338.922 13.7256 339.858 13.7256ZM360.158 6.62109V20H358.498L358.205 18.1201H358.095C357.819 18.584 357.46 18.9746 357.021 19.292C356.582 19.6094 356.085 19.8454 355.532 20C354.986 20.1628 354.405 20.2441 353.786 20.2441C352.728 20.2441 351.841 20.0732 351.125 19.7314C350.409 19.3896 349.868 18.8607 349.501 18.1445C349.143 17.4284 348.964 16.5088 348.964 15.3857V6.62109H351.015V15.2393C351.015 16.3542 351.267 17.1883 351.772 17.7417C352.277 18.2869 353.046 18.5596 354.079 18.5596C355.072 18.5596 355.861 18.3724 356.447 17.998C357.041 17.6237 357.469 17.0744 357.729 16.3501C357.989 15.6177 358.12 14.7225 358.12 13.6646V6.62109H360.158ZM369.594 6.37695C370.734 6.37695 371.71 6.62923 372.524 7.13379C373.338 7.63835 373.96 8.34635 374.392 9.25781C374.823 10.1611 375.039 11.2191 375.039 12.4316V13.689H365.798C365.822 15.2596 366.213 16.4559 366.97 17.2778C367.727 18.0998 368.793 18.5107 370.168 18.5107C371.014 18.5107 371.763 18.4334 372.414 18.2788C373.065 18.1242 373.741 17.8963 374.44 17.5952V19.3774C373.765 19.6785 373.094 19.8983 372.426 20.0366C371.767 20.175 370.986 20.2441 370.083 20.2441C368.797 20.2441 367.674 19.9837 366.713 19.4629C365.761 18.9339 365.021 18.1608 364.492 17.1436C363.963 16.1263 363.698 14.8812 363.698 13.4082C363.698 11.9678 363.938 10.7227 364.418 9.67285C364.907 8.61491 365.59 7.80111 366.469 7.23145C367.356 6.66178 368.398 6.37695 369.594 6.37695ZM369.57 8.03711C368.487 8.03711 367.625 8.39111 366.982 9.09912C366.339 9.80713 365.957 10.7959 365.834 12.0654H372.915C372.906 11.2679 372.78 10.568 372.536 9.96582C372.3 9.35547 371.938 8.88346 371.45 8.5498C370.961 8.20801 370.335 8.03711 369.57 8.03711ZM372.951 0.847168V1.09131C372.788 1.32731 372.565 1.61214 372.28 1.9458C372.003 2.27132 371.694 2.61719 371.352 2.9834C371.01 3.34147 370.664 3.68327 370.314 4.00879C369.973 4.33431 369.655 4.61507 369.362 4.85107H368.007V4.55811C368.268 4.24886 368.553 3.87858 368.862 3.44727C369.171 3.00781 369.472 2.56022 369.765 2.10449C370.058 1.64062 370.302 1.22152 370.498 0.847168H372.951ZM380.507 6.62109V20H378.481V6.62109H380.507ZM379.519 1.61621C379.852 1.61621 380.137 1.72607 380.373 1.9458C380.617 2.15739 380.739 2.49105 380.739 2.94678C380.739 3.39437 380.617 3.72803 380.373 3.94775C380.137 4.16748 379.852 4.27734 379.519 4.27734C379.169 4.27734 378.876 4.16748 378.64 3.94775C378.412 3.72803 378.298 3.39437 378.298 2.94678C378.298 2.49105 378.412 2.15739 378.64 1.9458C378.876 1.72607 379.169 1.61621 379.519 1.61621ZM393.459 16.3379C393.459 17.1924 393.243 17.9126 392.812 18.4985C392.389 19.0763 391.778 19.5117 390.981 19.8047C390.192 20.0977 389.248 20.2441 388.149 20.2441C387.213 20.2441 386.403 20.1709 385.72 20.0244C385.036 19.8779 384.438 19.6704 383.925 19.4019V17.5342C384.471 17.8027 385.122 18.0469 385.878 18.2666C386.635 18.4863 387.408 18.5962 388.198 18.5962C389.353 18.5962 390.192 18.409 390.712 18.0347C391.233 17.6603 391.494 17.1517 391.494 16.5088C391.494 16.1426 391.388 15.8211 391.176 15.5444C390.973 15.2596 390.627 14.987 390.139 14.7266C389.65 14.458 388.975 14.165 388.112 13.8477C387.258 13.5221 386.517 13.2007 385.891 12.8833C385.272 12.5578 384.792 12.1631 384.45 11.6992C384.117 11.2354 383.95 10.6331 383.95 9.89258C383.95 8.76139 384.405 7.89469 385.317 7.29248C386.236 6.68213 387.441 6.37695 388.93 6.37695C389.736 6.37695 390.489 6.45833 391.188 6.62109C391.896 6.77572 392.556 6.9873 393.166 7.25586L392.482 8.87939C391.929 8.64339 391.339 8.44401 390.712 8.28125C390.086 8.11849 389.447 8.03711 388.796 8.03711C387.86 8.03711 387.14 8.19173 386.635 8.50098C386.139 8.81022 385.891 9.2334 385.891 9.77051C385.891 10.1855 386.005 10.5273 386.232 10.7959C386.468 11.0645 386.843 11.3167 387.355 11.5527C387.868 11.7887 388.544 12.0654 389.382 12.3828C390.22 12.6921 390.944 13.0135 391.555 13.3472C392.165 13.6727 392.633 14.0715 392.958 14.5435C393.292 15.0073 393.459 15.6055 393.459 16.3379ZM407.973 20.2441C406.28 20.2441 404.938 19.6663 403.945 18.5107C402.96 17.3551 402.468 15.638 402.468 13.3594C402.468 11.0563 402.972 9.31885 403.981 8.14697C404.991 6.96696 406.333 6.37695 408.01 6.37695C408.718 6.37695 409.336 6.47054 409.865 6.65771C410.394 6.84489 410.85 7.09717 411.232 7.41455C411.615 7.7238 411.936 8.0778 412.197 8.47656H412.343C412.311 8.22428 412.278 7.87842 412.246 7.43896C412.213 6.99951 412.197 6.64144 412.197 6.36475V1.00586H414.223V20H412.587L412.282 18.0957H412.197C411.944 18.4945 411.623 18.8566 411.232 19.1821C410.85 19.5076 410.39 19.7681 409.853 19.9634C409.324 20.1506 408.697 20.2441 407.973 20.2441ZM408.291 18.5596C409.723 18.5596 410.736 18.1527 411.33 17.3389C411.924 16.5251 412.221 15.3166 412.221 13.7134V13.3472C412.221 11.6463 411.936 10.3402 411.367 9.42871C410.805 8.51725 409.78 8.06152 408.291 8.06152C407.045 8.06152 406.114 8.54167 405.495 9.50195C404.877 10.4541 404.567 11.7562 404.567 13.4082C404.567 15.0521 404.873 16.3216 405.483 17.2168C406.101 18.112 407.037 18.5596 408.291 18.5596ZM423.671 6.37695C424.811 6.37695 425.787 6.62923 426.601 7.13379C427.415 7.63835 428.037 8.34635 428.469 9.25781C428.9 10.1611 429.116 11.2191 429.116 12.4316V13.689H419.875C419.899 15.2596 420.29 16.4559 421.047 17.2778C421.804 18.0998 422.87 18.5107 424.245 18.5107C425.091 18.5107 425.84 18.4334 426.491 18.2788C427.142 18.1242 427.818 17.8963 428.518 17.5952V19.3774C427.842 19.6785 427.171 19.8983 426.503 20.0366C425.844 20.175 425.063 20.2441 424.16 20.2441C422.874 20.2441 421.751 19.9837 420.791 19.4629C419.838 18.9339 419.098 18.1608 418.569 17.1436C418.04 16.1263 417.775 14.8812 417.775 13.4082C417.775 11.9678 418.015 10.7227 418.496 9.67285C418.984 8.61491 419.667 7.80111 420.546 7.23145C421.433 6.66178 422.475 6.37695 423.671 6.37695ZM423.647 8.03711C422.565 8.03711 421.702 8.39111 421.059 9.09912C420.416 9.80713 420.034 10.7959 419.912 12.0654H426.992C426.984 11.2679 426.857 10.568 426.613 9.96582C426.377 9.35547 426.015 8.88346 425.527 8.5498C425.039 8.20801 424.412 8.03711 423.647 8.03711ZM445.131 6.37695C445.4 6.37695 445.681 6.39323 445.974 6.42578C446.267 6.4502 446.527 6.48682 446.755 6.53564L446.499 8.41553C446.279 8.35856 446.035 8.3138 445.766 8.28125C445.498 8.2487 445.245 8.23242 445.009 8.23242C444.472 8.23242 443.964 8.34229 443.483 8.56201C443.011 8.7736 442.596 9.08285 442.238 9.48975C441.88 9.88851 441.599 10.3727 441.396 10.9424C441.193 11.5039 441.091 12.1305 441.091 12.8223V20H439.052V6.62109H440.737L440.957 9.08691H441.042C441.319 8.59049 441.652 8.13883 442.043 7.73193C442.434 7.31689 442.885 6.9873 443.398 6.74316C443.919 6.49902 444.497 6.37695 445.131 6.37695ZM454.433 6.37695C455.572 6.37695 456.549 6.62923 457.363 7.13379C458.177 7.63835 458.799 8.34635 459.23 9.25781C459.662 10.1611 459.877 11.2191 459.877 12.4316V13.689H450.637C450.661 15.2596 451.052 16.4559 451.809 17.2778C452.565 18.0998 453.632 18.5107 455.007 18.5107C455.853 18.5107 456.602 18.4334 457.253 18.2788C457.904 18.1242 458.579 17.8963 459.279 17.5952V19.3774C458.604 19.6785 457.932 19.8983 457.265 20.0366C456.606 20.175 455.825 20.2441 454.921 20.2441C453.636 20.2441 452.513 19.9837 451.552 19.4629C450.6 18.9339 449.86 18.1608 449.331 17.1436C448.802 16.1263 448.537 14.8812 448.537 13.4082C448.537 11.9678 448.777 10.7227 449.257 9.67285C449.746 8.61491 450.429 7.80111 451.308 7.23145C452.195 6.66178 453.237 6.37695 454.433 6.37695ZM454.409 8.03711C453.326 8.03711 452.464 8.39111 451.821 9.09912C451.178 9.80713 450.795 10.7959 450.673 12.0654H457.753C457.745 11.2679 457.619 10.568 457.375 9.96582C457.139 9.35547 456.777 8.88346 456.289 8.5498C455.8 8.20801 455.174 8.03711 454.409 8.03711ZM469.606 6.37695C471.275 6.37695 472.605 6.95068 473.598 8.09814C474.591 9.24561 475.087 10.9709 475.087 13.2739C475.087 14.7957 474.86 16.0734 474.404 17.1069C473.948 18.1405 473.305 18.9217 472.475 19.4507C471.653 19.9797 470.681 20.2441 469.558 20.2441C468.85 20.2441 468.227 20.1506 467.69 19.9634C467.153 19.7762 466.693 19.5239 466.311 19.2065C465.928 18.8892 465.611 18.5433 465.358 18.1689H465.212C465.236 18.4863 465.265 18.8688 465.297 19.3164C465.338 19.764 465.358 20.1546 465.358 20.4883V25.9814H463.32V6.62109H464.992L465.261 8.59863H465.358C465.619 8.19173 465.936 7.82145 466.311 7.48779C466.685 7.146 467.141 6.87744 467.678 6.68213C468.223 6.47868 468.866 6.37695 469.606 6.37695ZM469.252 8.08594C468.325 8.08594 467.576 8.26497 467.006 8.62305C466.445 8.98112 466.034 9.51823 465.773 10.2344C465.513 10.9424 465.375 11.8335 465.358 12.9077V13.2983C465.358 14.4295 465.48 15.3857 465.725 16.167C465.977 16.9482 466.388 17.5423 466.958 17.9492C467.535 18.3561 468.308 18.5596 469.277 18.5596C470.107 18.5596 470.799 18.3358 471.352 17.8882C471.905 17.4406 472.316 16.818 472.585 16.0205C472.862 15.2148 473 14.2912 473 13.2495C473 11.6707 472.691 10.4175 472.072 9.48975C471.462 8.55387 470.522 8.08594 469.252 8.08594ZM489.675 6.62109V20H488.015L487.722 18.1201H487.612C487.335 18.584 486.977 18.9746 486.538 19.292C486.098 19.6094 485.602 19.8454 485.048 20C484.503 20.1628 483.921 20.2441 483.303 20.2441C482.245 20.2441 481.358 20.0732 480.642 19.7314C479.925 19.3896 479.384 18.8607 479.018 18.1445C478.66 17.4284 478.481 16.5088 478.481 15.3857V6.62109H480.532V15.2393C480.532 16.3542 480.784 17.1883 481.289 17.7417C481.793 18.2869 482.562 18.5596 483.596 18.5596C484.589 18.5596 485.378 18.3724 485.964 17.998C486.558 17.6237 486.985 17.0744 487.246 16.3501C487.506 15.6177 487.636 14.7225 487.636 13.6646V6.62109H489.675ZM487.697 0.847168V1.09131C487.535 1.32731 487.311 1.61214 487.026 1.9458C486.749 2.27132 486.44 2.61719 486.098 2.9834C485.756 3.34147 485.41 3.68327 485.061 4.00879C484.719 4.33431 484.401 4.61507 484.108 4.85107H482.753V4.55811C483.014 4.24886 483.299 3.87858 483.608 3.44727C483.917 3.00781 484.218 2.56022 484.511 2.10449C484.804 1.64062 485.048 1.22152 485.244 0.847168H487.697ZM495.986 1.00586V5.75439C495.986 6.29964 495.97 6.82861 495.937 7.34131C495.913 7.854 495.892 8.25277 495.876 8.5376H495.986C496.352 7.93538 496.881 7.42676 497.573 7.01172C498.264 6.59668 499.147 6.38916 500.222 6.38916C501.898 6.38916 503.233 6.97103 504.226 8.13477C505.227 9.29036 505.727 11.0116 505.727 13.2983C505.727 14.8039 505.499 16.0734 505.043 17.1069C504.588 18.1405 503.945 18.9217 503.115 19.4507C502.285 19.9797 501.304 20.2441 500.173 20.2441C499.115 20.2441 498.244 20.0488 497.561 19.6582C496.885 19.2594 496.364 18.7752 495.998 18.2056H495.839L495.424 20H493.959V1.00586H495.986ZM499.892 8.08594C498.924 8.08594 498.155 8.27718 497.585 8.65967C497.015 9.03402 496.604 9.60368 496.352 10.3687C496.108 11.1255 495.986 12.0858 495.986 13.2495V13.3594C495.986 15.0439 496.267 16.3338 496.828 17.229C497.39 18.116 498.411 18.5596 499.892 18.5596C501.137 18.5596 502.069 18.1038 502.688 17.1924C503.314 16.2809 503.627 14.9788 503.627 13.2861C503.627 11.5609 503.318 10.2629 502.7 9.39209C502.089 8.52132 501.153 8.08594 499.892 8.08594ZM511.306 20H509.267V1.00586H511.306V20ZM517.617 6.62109V20H515.59V6.62109H517.617ZM516.628 1.61621C516.962 1.61621 517.246 1.72607 517.482 1.9458C517.727 2.15739 517.849 2.49105 517.849 2.94678C517.849 3.39437 517.727 3.72803 517.482 3.94775C517.246 4.16748 516.962 4.27734 516.628 4.27734C516.278 4.27734 515.985 4.16748 515.749 3.94775C515.521 3.72803 515.407 3.39437 515.407 2.94678C515.407 2.49105 515.521 2.15739 515.749 1.9458C515.985 1.72607 516.278 1.61621 516.628 1.61621ZM527.272 20.2441C526.068 20.2441 525.006 19.9959 524.086 19.4995C523.167 19.0031 522.451 18.2463 521.938 17.229C521.425 16.2118 521.169 14.93 521.169 13.3838C521.169 11.7643 521.438 10.4419 521.975 9.4165C522.52 8.38298 523.269 7.618 524.221 7.12158C525.173 6.62516 526.255 6.37695 527.468 6.37695C528.135 6.37695 528.778 6.44613 529.396 6.58447C530.023 6.71468 530.536 6.88151 530.935 7.08496L530.324 8.78174C529.917 8.61898 529.445 8.47249 528.908 8.34229C528.379 8.21208 527.883 8.14697 527.419 8.14697C526.491 8.14697 525.718 8.34635 525.1 8.74512C524.489 9.14388 524.029 9.72982 523.72 10.5029C523.419 11.276 523.269 12.2282 523.269 13.3594C523.269 14.4417 523.415 15.3654 523.708 16.1304C524.009 16.8953 524.453 17.4813 525.039 17.8882C525.633 18.2869 526.373 18.4863 527.26 18.4863C527.968 18.4863 528.607 18.4131 529.177 18.2666C529.746 18.112 530.263 17.9329 530.727 17.7295V19.5361C530.279 19.764 529.779 19.939 529.226 20.061C528.68 20.1831 528.029 20.2441 527.272 20.2441ZM538.906 6.40137C540.501 6.40137 541.685 6.75944 542.458 7.47559C543.231 8.19173 543.618 9.33512 543.618 10.9058V20H542.141L541.75 18.0225H541.652C541.278 18.5107 540.887 18.9217 540.48 19.2554C540.074 19.5809 539.602 19.8291 539.064 20C538.535 20.1628 537.884 20.2441 537.111 20.2441C536.298 20.2441 535.573 20.1017 534.938 19.8169C534.312 19.5321 533.815 19.1007 533.449 18.5229C533.091 17.9451 532.912 17.2127 532.912 16.3257C532.912 14.991 533.441 13.9657 534.499 13.2495C535.557 12.5334 537.168 12.1427 539.333 12.0776L541.64 11.98V11.1621C541.64 10.0065 541.392 9.19678 540.896 8.73291C540.399 8.26904 539.699 8.03711 538.796 8.03711C538.096 8.03711 537.429 8.13883 536.794 8.34229C536.159 8.54574 535.557 8.78581 534.987 9.0625L534.365 7.52441C534.967 7.21517 535.659 6.95068 536.44 6.73096C537.221 6.51123 538.043 6.40137 538.906 6.40137ZM541.616 13.4082L539.577 13.4937C537.909 13.5588 536.733 13.8314 536.049 14.3115C535.366 14.7917 535.024 15.4712 535.024 16.3501C535.024 17.1151 535.256 17.6807 535.72 18.0469C536.184 18.4131 536.798 18.5962 537.563 18.5962C538.751 18.5962 539.724 18.2666 540.48 17.6074C541.237 16.9482 541.616 15.9595 541.616 14.6411V13.4082ZM556.447 16.3379C556.447 17.1924 556.232 17.9126 555.8 18.4985C555.377 19.0763 554.767 19.5117 553.969 19.8047C553.18 20.0977 552.236 20.2441 551.137 20.2441C550.201 20.2441 549.392 20.1709 548.708 20.0244C548.024 19.8779 547.426 19.6704 546.914 19.4019V17.5342C547.459 17.8027 548.11 18.0469 548.867 18.2666C549.624 18.4863 550.397 18.5962 551.186 18.5962C552.342 18.5962 553.18 18.409 553.701 18.0347C554.222 17.6603 554.482 17.1517 554.482 16.5088C554.482 16.1426 554.376 15.8211 554.165 15.5444C553.961 15.2596 553.615 14.987 553.127 14.7266C552.639 14.458 551.963 14.165 551.101 13.8477C550.246 13.5221 549.506 13.2007 548.879 12.8833C548.26 12.5578 547.78 12.1631 547.438 11.6992C547.105 11.2354 546.938 10.6331 546.938 9.89258C546.938 8.76139 547.394 7.89469 548.305 7.29248C549.225 6.68213 550.429 6.37695 551.918 6.37695C552.724 6.37695 553.477 6.45833 554.177 6.62109C554.885 6.77572 555.544 6.9873 556.154 7.25586L555.471 8.87939C554.917 8.64339 554.327 8.44401 553.701 8.28125C553.074 8.11849 552.435 8.03711 551.784 8.03711C550.848 8.03711 550.128 8.19173 549.624 8.50098C549.127 8.81022 548.879 9.2334 548.879 9.77051C548.879 10.1855 548.993 10.5273 549.221 10.7959C549.457 11.0645 549.831 11.3167 550.344 11.5527C550.856 11.7887 551.532 12.0654 552.37 12.3828C553.208 12.6921 553.933 13.0135 554.543 13.3472C555.153 13.6727 555.621 14.0715 555.947 14.5435C556.28 15.0073 556.447 15.6055 556.447 16.3379ZM6.42285 40.377C8.09115 40.377 9.42171 40.9507 10.4146 42.0981C11.4074 43.2456 11.9038 44.9709 11.9038 47.2739C11.9038 48.7957 11.6759 50.0734 11.2202 51.1069C10.7645 52.1405 10.1216 52.9217 9.2915 53.4507C8.46956 53.9797 7.49707 54.2441 6.37402 54.2441C5.66602 54.2441 5.04346 54.1506 4.50635 53.9634C3.96924 53.7762 3.50944 53.5239 3.12695 53.2065C2.74447 52.8892 2.42708 52.5433 2.1748 52.1689H2.02832C2.05273 52.4863 2.08122 52.8688 2.11377 53.3164C2.15446 53.764 2.1748 54.1546 2.1748 54.4883V59.9814H0.13623V40.6211H1.80859L2.07715 42.5986H2.1748C2.43522 42.1917 2.7526 41.8215 3.12695 41.4878C3.5013 41.146 3.95703 40.8774 4.49414 40.6821C5.03939 40.4787 5.68229 40.377 6.42285 40.377ZM6.06885 42.0859C5.14111 42.0859 4.39242 42.265 3.82275 42.623C3.26123 42.9811 2.85026 43.5182 2.58984 44.2344C2.32943 44.9424 2.19108 45.8335 2.1748 46.9077V47.2983C2.1748 48.4295 2.29688 49.3857 2.54102 50.167C2.79329 50.9482 3.20426 51.5423 3.77393 51.9492C4.35173 52.3561 5.12484 52.5596 6.09326 52.5596C6.92334 52.5596 7.61507 52.3358 8.16846 51.8882C8.72184 51.4406 9.13281 50.818 9.40137 50.0205C9.67806 49.2148 9.81641 48.2912 9.81641 47.2495C9.81641 45.6707 9.50716 44.4175 8.88867 43.4897C8.27832 42.5539 7.33838 42.0859 6.06885 42.0859ZM20.4487 40.4014C22.0438 40.4014 23.2279 40.7594 24.001 41.4756C24.7741 42.1917 25.1606 43.3351 25.1606 44.9058V54H23.6836L23.293 52.0225H23.1953C22.821 52.5107 22.4303 52.9217 22.0234 53.2554C21.6165 53.5809 21.1445 53.8291 20.6074 54C20.0785 54.1628 19.4274 54.2441 18.6543 54.2441C17.8405 54.2441 17.1162 54.1017 16.4814 53.8169C15.8548 53.5321 15.3584 53.1007 14.9922 52.5229C14.6341 51.9451 14.4551 51.2127 14.4551 50.3257C14.4551 48.991 14.984 47.9657 16.042 47.2495C17.0999 46.5334 18.7113 46.1427 20.876 46.0776L23.1831 45.98V45.1621C23.1831 44.0065 22.9349 43.1968 22.4385 42.7329C21.9421 42.269 21.2422 42.0371 20.3389 42.0371C19.639 42.0371 18.9717 42.1388 18.3369 42.3423C17.7021 42.5457 17.0999 42.7858 16.5303 43.0625L15.9077 41.5244C16.5099 41.2152 17.2017 40.9507 17.9829 40.731C18.7642 40.5112 19.5861 40.4014 20.4487 40.4014ZM23.1587 47.4082L21.1201 47.4937C19.4518 47.5588 18.2759 47.8314 17.5923 48.3115C16.9087 48.7917 16.5669 49.4712 16.5669 50.3501C16.5669 51.1151 16.7988 51.6807 17.2627 52.0469C17.7266 52.4131 18.341 52.5962 19.106 52.5962C20.2941 52.5962 21.2666 52.2666 22.0234 51.6074C22.7803 50.9482 23.1587 49.9595 23.1587 48.6411V47.4082ZM35.4146 40.377C35.6831 40.377 35.9639 40.3932 36.2568 40.4258C36.5498 40.4502 36.8102 40.4868 37.0381 40.5356L36.7817 42.4155C36.562 42.3586 36.3179 42.3138 36.0493 42.2812C35.7808 42.2487 35.5285 42.2324 35.2925 42.2324C34.7554 42.2324 34.2467 42.3423 33.7666 42.562C33.2946 42.7736 32.8796 43.0828 32.5215 43.4897C32.1634 43.8885 31.8826 44.3727 31.6792 44.9424C31.4757 45.5039 31.374 46.1305 31.374 46.8223V54H29.3354V40.6211H31.02L31.2397 43.0869H31.3252C31.6019 42.5905 31.9355 42.1388 32.3262 41.7319C32.7168 41.3169 33.1685 40.9873 33.6812 40.7432C34.202 40.499 34.7798 40.377 35.4146 40.377ZM44.5698 40.4014C46.1649 40.4014 47.349 40.7594 48.1221 41.4756C48.8952 42.1917 49.2817 43.3351 49.2817 44.9058V54H47.8047L47.4141 52.0225H47.3164C46.9421 52.5107 46.5514 52.9217 46.1445 53.2554C45.7376 53.5809 45.2656 53.8291 44.7285 54C44.1995 54.1628 43.5485 54.2441 42.7754 54.2441C41.9616 54.2441 41.2373 54.1017 40.6025 53.8169C39.9759 53.5321 39.4795 53.1007 39.1133 52.5229C38.7552 51.9451 38.5762 51.2127 38.5762 50.3257C38.5762 48.991 39.1051 47.9657 40.1631 47.2495C41.221 46.5334 42.8324 46.1427 44.9971 46.0776L47.3042 45.98V45.1621C47.3042 44.0065 47.056 43.1968 46.5596 42.7329C46.0632 42.269 45.3633 42.0371 44.46 42.0371C43.7601 42.0371 43.0928 42.1388 42.458 42.3423C41.8232 42.5457 41.221 42.7858 40.6514 43.0625L40.0288 41.5244C40.631 41.2152 41.3228 40.9507 42.104 40.731C42.8853 40.5112 43.7072 40.4014 44.5698 40.4014ZM47.2798 47.4082L45.2412 47.4937C43.5729 47.5588 42.397 47.8314 41.7134 48.3115C41.0298 48.7917 40.688 49.4712 40.688 50.3501C40.688 51.1151 40.9199 51.6807 41.3838 52.0469C41.8477 52.4131 42.4621 52.5962 43.2271 52.5962C44.4152 52.5962 45.3877 52.2666 46.1445 51.6074C46.9014 50.9482 47.2798 49.9595 47.2798 48.6411V47.4082ZM66.2373 40.377C67.9056 40.377 69.2362 40.9507 70.229 42.0981C71.2218 43.2456 71.7183 44.9709 71.7183 47.2739C71.7183 48.7957 71.4904 50.0734 71.0347 51.1069C70.5789 52.1405 69.936 52.9217 69.106 53.4507C68.284 53.9797 67.3115 54.2441 66.1885 54.2441C65.4805 54.2441 64.8579 54.1506 64.3208 53.9634C63.7837 53.7762 63.3239 53.5239 62.9414 53.2065C62.5589 52.8892 62.2415 52.5433 61.9893 52.1689H61.8428C61.8672 52.4863 61.8957 52.8688 61.9282 53.3164C61.9689 53.764 61.9893 54.1546 61.9893 54.4883V59.9814H59.9507V40.6211H61.623L61.8916 42.5986H61.9893C62.2497 42.1917 62.5671 41.8215 62.9414 41.4878C63.3158 41.146 63.7715 40.8774 64.3086 40.6821C64.8538 40.4787 65.4967 40.377 66.2373 40.377ZM65.8833 42.0859C64.9556 42.0859 64.2069 42.265 63.6372 42.623C63.0757 42.9811 62.6647 43.5182 62.4043 44.2344C62.1439 44.9424 62.0055 45.8335 61.9893 46.9077V47.2983C61.9893 48.4295 62.1113 49.3857 62.3555 50.167C62.6077 50.9482 63.0187 51.5423 63.5884 51.9492C64.1662 52.3561 64.9393 52.5596 65.9077 52.5596C66.7378 52.5596 67.4295 52.3358 67.9829 51.8882C68.5363 51.4406 68.9473 50.818 69.2158 50.0205C69.4925 49.2148 69.6309 48.2912 69.6309 47.2495C69.6309 45.6707 69.3216 44.4175 68.7031 43.4897C68.0928 42.5539 67.1528 42.0859 65.8833 42.0859ZM80.4097 40.377C81.549 40.377 82.5256 40.6292 83.3394 41.1338C84.1532 41.6383 84.7757 42.3464 85.207 43.2578C85.6383 44.1611 85.854 45.2191 85.854 46.4316V47.689H76.6133C76.6377 49.2596 77.0283 50.4559 77.7852 51.2778C78.542 52.0998 79.6081 52.5107 80.9834 52.5107C81.8298 52.5107 82.5785 52.4334 83.2295 52.2788C83.8805 52.1242 84.556 51.8963 85.2559 51.5952V53.3774C84.5804 53.6785 83.909 53.8983 83.2417 54.0366C82.5825 54.175 81.8013 54.2441 80.8979 54.2441C79.6121 54.2441 78.4891 53.9837 77.5288 53.4629C76.5767 52.9339 75.8361 52.1608 75.3071 51.1436C74.7782 50.1263 74.5137 48.8812 74.5137 47.4082C74.5137 45.9678 74.7537 44.7227 75.2339 43.6729C75.7222 42.6149 76.4058 41.8011 77.2847 41.2314C78.1717 40.6618 79.2134 40.377 80.4097 40.377ZM80.3853 42.0371C79.3029 42.0371 78.4403 42.3911 77.7974 43.0991C77.1545 43.8071 76.772 44.7959 76.6499 46.0654H83.73C83.7218 45.2679 83.5957 44.568 83.3516 43.9658C83.1156 43.3555 82.7534 42.8835 82.2651 42.5498C81.7769 42.208 81.1502 42.0371 80.3853 42.0371ZM97.9512 50.3379C97.9512 51.1924 97.7355 51.9126 97.3042 52.4985C96.881 53.0763 96.2707 53.5117 95.4731 53.8047C94.6838 54.0977 93.7397 54.2441 92.6411 54.2441C91.7052 54.2441 90.8955 54.1709 90.2119 54.0244C89.5283 53.8779 88.9302 53.6704 88.4175 53.4019V51.5342C88.9627 51.8027 89.6138 52.0469 90.3706 52.2666C91.1274 52.4863 91.9006 52.5962 92.6899 52.5962C93.8455 52.5962 94.6838 52.409 95.2046 52.0347C95.7254 51.6603 95.9858 51.1517 95.9858 50.5088C95.9858 50.1426 95.88 49.8211 95.6685 49.5444C95.465 49.2596 95.1191 48.987 94.6309 48.7266C94.1426 48.458 93.4671 48.165 92.6045 47.8477C91.75 47.5221 91.0094 47.2007 90.3828 46.8833C89.7643 46.5578 89.2842 46.1631 88.9424 45.6992C88.6087 45.2354 88.4419 44.6331 88.4419 43.8926C88.4419 42.7614 88.8976 41.8947 89.8091 41.2925C90.7287 40.6821 91.9331 40.377 93.4224 40.377C94.228 40.377 94.9808 40.4583 95.6807 40.6211C96.3887 40.7757 97.0479 40.9873 97.6582 41.2559L96.9746 42.8794C96.4212 42.6434 95.8312 42.444 95.2046 42.2812C94.578 42.1185 93.9391 42.0371 93.2881 42.0371C92.3522 42.0371 91.632 42.1917 91.1274 42.501C90.631 42.8102 90.3828 43.2334 90.3828 43.7705C90.3828 44.1855 90.4967 44.5273 90.7246 44.7959C90.9606 45.0645 91.335 45.3167 91.8477 45.5527C92.3604 45.7887 93.0358 46.0654 93.874 46.3828C94.7122 46.6921 95.4365 47.0135 96.0469 47.3472C96.6572 47.6727 97.1252 48.0715 97.4507 48.5435C97.7843 49.0073 97.9512 49.6055 97.9512 50.3379ZM109.865 50.3379C109.865 51.1924 109.65 51.9126 109.218 52.4985C108.795 53.0763 108.185 53.5117 107.387 53.8047C106.598 54.0977 105.654 54.2441 104.555 54.2441C103.619 54.2441 102.81 54.1709 102.126 54.0244C101.442 53.8779 100.844 53.6704 100.332 53.4019V51.5342C100.877 51.8027 101.528 52.0469 102.285 52.2666C103.042 52.4863 103.815 52.5962 104.604 52.5962C105.76 52.5962 106.598 52.409 107.119 52.0347C107.639 51.6603 107.9 51.1517 107.9 50.5088C107.9 50.1426 107.794 49.8211 107.583 49.5444C107.379 49.2596 107.033 48.987 106.545 48.7266C106.057 48.458 105.381 48.165 104.519 47.8477C103.664 47.5221 102.924 47.2007 102.297 46.8833C101.678 46.5578 101.198 46.1631 100.856 45.6992C100.523 45.2354 100.356 44.6331 100.356 43.8926C100.356 42.7614 100.812 41.8947 101.723 41.2925C102.643 40.6821 103.847 40.377 105.336 40.377C106.142 40.377 106.895 40.4583 107.595 40.6211C108.303 40.7757 108.962 40.9873 109.572 41.2559L108.889 42.8794C108.335 42.6434 107.745 42.444 107.119 42.2812C106.492 42.1185 105.853 42.0371 105.202 42.0371C104.266 42.0371 103.546 42.1917 103.042 42.501C102.545 42.8102 102.297 43.2334 102.297 43.7705C102.297 44.1855 102.411 44.5273 102.639 44.7959C102.875 45.0645 103.249 45.3167 103.762 45.5527C104.274 45.7887 104.95 46.0654 105.788 46.3828C106.626 46.6921 107.351 47.0135 107.961 47.3472C108.571 47.6727 109.039 48.0715 109.365 48.5435C109.698 49.0073 109.865 49.6055 109.865 50.3379ZM124.66 47.2861C124.66 48.3848 124.518 49.3654 124.233 50.228C123.948 51.0907 123.537 51.819 123 52.4131C122.463 53.0072 121.812 53.4629 121.047 53.7803C120.29 54.0895 119.431 54.2441 118.471 54.2441C117.576 54.2441 116.754 54.0895 116.005 53.7803C115.265 53.4629 114.622 53.0072 114.077 52.4131C113.54 51.819 113.12 51.0907 112.819 50.228C112.526 49.3654 112.38 48.3848 112.38 47.2861C112.38 45.8213 112.628 44.5762 113.125 43.5508C113.621 42.5173 114.329 41.7319 115.249 41.1948C116.176 40.6496 117.279 40.377 118.557 40.377C119.777 40.377 120.843 40.6496 121.755 41.1948C122.674 41.7401 123.387 42.5295 123.891 43.563C124.404 44.5884 124.66 45.8294 124.66 47.2861ZM114.479 47.2861C114.479 48.3604 114.622 49.2922 114.907 50.0815C115.192 50.8709 115.631 51.4813 116.225 51.9126C116.819 52.3439 117.584 52.5596 118.52 52.5596C119.448 52.5596 120.209 52.3439 120.803 51.9126C121.405 51.4813 121.848 50.8709 122.133 50.0815C122.418 49.2922 122.561 48.3604 122.561 47.2861C122.561 46.2201 122.418 45.3005 122.133 44.5273C121.848 43.7461 121.409 43.1439 120.815 42.7207C120.221 42.2975 119.452 42.0859 118.508 42.0859C117.116 42.0859 116.095 42.5457 115.444 43.4653C114.801 44.3849 114.479 45.6585 114.479 47.2861ZM133.168 40.4014C134.764 40.4014 135.948 40.7594 136.721 41.4756C137.494 42.1917 137.88 43.3351 137.88 44.9058V54H136.403L136.013 52.0225H135.915C135.541 52.5107 135.15 52.9217 134.743 53.2554C134.336 53.5809 133.864 53.8291 133.327 54C132.798 54.1628 132.147 54.2441 131.374 54.2441C130.56 54.2441 129.836 54.1017 129.201 53.8169C128.575 53.5321 128.078 53.1007 127.712 52.5229C127.354 51.9451 127.175 51.2127 127.175 50.3257C127.175 48.991 127.704 47.9657 128.762 47.2495C129.82 46.5334 131.431 46.1427 133.596 46.0776L135.903 45.98V45.1621C135.903 44.0065 135.655 43.1968 135.158 42.7329C134.662 42.269 133.962 42.0371 133.059 42.0371C132.359 42.0371 131.691 42.1388 131.057 42.3423C130.422 42.5457 129.82 42.7858 129.25 43.0625L128.627 41.5244C129.23 41.2152 129.921 40.9507 130.703 40.731C131.484 40.5112 132.306 40.4014 133.168 40.4014ZM135.878 47.4082L133.84 47.4937C132.172 47.5588 130.996 47.8314 130.312 48.3115C129.628 48.7917 129.287 49.4712 129.287 50.3501C129.287 51.1151 129.519 51.6807 129.982 52.0469C130.446 52.4131 131.061 52.5962 131.826 52.5962C133.014 52.5962 133.986 52.2666 134.743 51.6074C135.5 50.9482 135.878 49.9595 135.878 48.6411V47.4082ZM150.71 50.3379C150.71 51.1924 150.494 51.9126 150.063 52.4985C149.64 53.0763 149.029 53.5117 148.232 53.8047C147.443 54.0977 146.499 54.2441 145.4 54.2441C144.464 54.2441 143.654 54.1709 142.971 54.0244C142.287 53.8779 141.689 53.6704 141.176 53.4019V51.5342C141.722 51.8027 142.373 52.0469 143.129 52.2666C143.886 52.4863 144.659 52.5962 145.449 52.5962C146.604 52.5962 147.443 52.409 147.963 52.0347C148.484 51.6603 148.745 51.1517 148.745 50.5088C148.745 50.1426 148.639 49.8211 148.427 49.5444C148.224 49.2596 147.878 48.987 147.39 48.7266C146.901 48.458 146.226 48.165 145.363 47.8477C144.509 47.5221 143.768 47.2007 143.142 46.8833C142.523 46.5578 142.043 46.1631 141.701 45.6992C141.368 45.2354 141.201 44.6331 141.201 43.8926C141.201 42.7614 141.656 41.8947 142.568 41.2925C143.487 40.6821 144.692 40.377 146.181 40.377C146.987 40.377 147.74 40.4583 148.439 40.6211C149.147 40.7757 149.807 40.9873 150.417 41.2559L149.733 42.8794C149.18 42.6434 148.59 42.444 147.963 42.2812C147.337 42.1185 146.698 42.0371 146.047 42.0371C145.111 42.0371 144.391 42.1917 143.886 42.501C143.39 42.8102 143.142 43.2334 143.142 43.7705C143.142 44.1855 143.256 44.5273 143.483 44.7959C143.719 45.0645 144.094 45.3167 144.606 45.5527C145.119 45.7887 145.795 46.0654 146.633 46.3828C147.471 46.6921 148.195 47.0135 148.806 47.3472C149.416 47.6727 149.884 48.0715 150.209 48.5435C150.543 49.0073 150.71 49.6055 150.71 50.3379ZM171.511 40.6211V54H169.851L169.558 52.1201H169.448C169.171 52.584 168.813 52.9746 168.374 53.292C167.934 53.6094 167.438 53.8454 166.884 54C166.339 54.1628 165.757 54.2441 165.139 54.2441C164.081 54.2441 163.194 54.0732 162.478 53.7314C161.761 53.3896 161.22 52.8607 160.854 52.1445C160.496 51.4284 160.317 50.5088 160.317 49.3857V40.6211H162.368V49.2393C162.368 50.3542 162.62 51.1883 163.125 51.7417C163.629 52.2869 164.398 52.5596 165.432 52.5596C166.424 52.5596 167.214 52.3724 167.8 51.998C168.394 51.6237 168.821 51.0744 169.082 50.3501C169.342 49.6177 169.472 48.7225 169.472 47.6646V40.6211H171.511ZM182.131 40.377C183.718 40.377 184.918 40.7676 185.732 41.5488C186.546 42.3219 186.953 43.5671 186.953 45.2842V54H184.951V45.4185C184.951 44.3035 184.694 43.4694 184.182 42.916C183.677 42.3626 182.9 42.0859 181.85 42.0859C180.369 42.0859 179.327 42.505 178.725 43.3433C178.123 44.1815 177.822 45.3981 177.822 46.9932V54H175.795V40.6211H177.431L177.736 42.5498H177.846C178.131 42.0778 178.493 41.6831 178.933 41.3657C179.372 41.0402 179.864 40.7961 180.41 40.6333C180.955 40.4624 181.529 40.377 182.131 40.377ZM193.154 40.6211V54H191.127V40.6211H193.154ZM192.165 35.6162C192.499 35.6162 192.784 35.7261 193.02 35.9458C193.264 36.1574 193.386 36.491 193.386 36.9468C193.386 37.3944 193.264 37.728 193.02 37.9478C192.784 38.1675 192.499 38.2773 192.165 38.2773C191.815 38.2773 191.522 38.1675 191.286 37.9478C191.058 37.728 190.944 37.3944 190.944 36.9468C190.944 36.491 191.058 36.1574 191.286 35.9458C191.522 35.7261 191.815 35.6162 192.165 35.6162ZM200.393 54L195.314 40.6211H197.487L200.429 48.7144C200.633 49.2677 200.84 49.8781 201.052 50.5454C201.263 51.2127 201.41 51.7498 201.491 52.1567H201.577C201.674 51.7498 201.837 51.2127 202.065 50.5454C202.293 49.87 202.5 49.2596 202.688 48.7144L205.629 40.6211H207.802L202.712 54H200.393ZM215.102 40.377C216.241 40.377 217.218 40.6292 218.032 41.1338C218.846 41.6383 219.468 42.3464 219.899 43.2578C220.331 44.1611 220.546 45.2191 220.546 46.4316V47.689H211.306C211.33 49.2596 211.721 50.4559 212.478 51.2778C213.234 52.0998 214.3 52.5107 215.676 52.5107C216.522 52.5107 217.271 52.4334 217.922 52.2788C218.573 52.1242 219.248 51.8963 219.948 51.5952V53.3774C219.273 53.6785 218.601 53.8983 217.934 54.0366C217.275 54.175 216.494 54.2441 215.59 54.2441C214.305 54.2441 213.181 53.9837 212.221 53.4629C211.269 52.9339 210.528 52.1608 210 51.1436C209.471 50.1263 209.206 48.8812 209.206 47.4082C209.206 45.9678 209.446 44.7227 209.926 43.6729C210.415 42.6149 211.098 41.8011 211.977 41.2314C212.864 40.6618 213.906 40.377 215.102 40.377ZM215.078 42.0371C213.995 42.0371 213.133 42.3911 212.49 43.0991C211.847 43.8071 211.464 44.7959 211.342 46.0654H218.422C218.414 45.2679 218.288 44.568 218.044 43.9658C217.808 43.3555 217.446 42.8835 216.958 42.5498C216.469 42.208 215.843 42.0371 215.078 42.0371ZM230.068 40.377C230.336 40.377 230.617 40.3932 230.91 40.4258C231.203 40.4502 231.464 40.4868 231.691 40.5356L231.435 42.4155C231.215 42.3586 230.971 42.3138 230.703 42.2812C230.434 42.2487 230.182 42.2324 229.946 42.2324C229.409 42.2324 228.9 42.3423 228.42 42.562C227.948 42.7736 227.533 43.0828 227.175 43.4897C226.817 43.8885 226.536 44.3727 226.333 44.9424C226.129 45.5039 226.027 46.1305 226.027 46.8223V54H223.989V40.6211H225.673L225.893 43.0869H225.979C226.255 42.5905 226.589 42.1388 226.979 41.7319C227.37 41.3169 227.822 40.9873 228.334 40.7432C228.855 40.499 229.433 40.377 230.068 40.377ZM242.873 50.3379C242.873 51.1924 242.657 51.9126 242.226 52.4985C241.803 53.0763 241.193 53.5117 240.395 53.8047C239.606 54.0977 238.662 54.2441 237.563 54.2441C236.627 54.2441 235.817 54.1709 235.134 54.0244C234.45 53.8779 233.852 53.6704 233.339 53.4019V51.5342C233.885 51.8027 234.536 52.0469 235.292 52.2666C236.049 52.4863 236.822 52.5962 237.612 52.5962C238.767 52.5962 239.606 52.409 240.126 52.0347C240.647 51.6603 240.908 51.1517 240.908 50.5088C240.908 50.1426 240.802 49.8211 240.59 49.5444C240.387 49.2596 240.041 48.987 239.553 48.7266C239.064 48.458 238.389 48.165 237.526 47.8477C236.672 47.5221 235.931 47.2007 235.305 46.8833C234.686 46.5578 234.206 46.1631 233.864 45.6992C233.531 45.2354 233.364 44.6331 233.364 43.8926C233.364 42.7614 233.819 41.8947 234.731 41.2925C235.651 40.6821 236.855 40.377 238.344 40.377C239.15 40.377 239.903 40.4583 240.603 40.6211C241.311 40.7757 241.97 40.9873 242.58 41.2559L241.896 42.8794C241.343 42.6434 240.753 42.444 240.126 42.2812C239.5 42.1185 238.861 42.0371 238.21 42.0371C237.274 42.0371 236.554 42.1917 236.049 42.501C235.553 42.8102 235.305 43.2334 235.305 43.7705C235.305 44.1855 235.419 44.5273 235.646 44.7959C235.882 45.0645 236.257 45.3167 236.77 45.5527C237.282 45.7887 237.958 46.0654 238.796 46.3828C239.634 46.6921 240.358 47.0135 240.969 47.3472C241.579 47.6727 242.047 48.0715 242.373 48.5435C242.706 49.0073 242.873 49.6055 242.873 50.3379ZM248.159 40.6211V54H246.132V40.6211H248.159ZM247.17 35.6162C247.504 35.6162 247.788 35.7261 248.024 35.9458C248.269 36.1574 248.391 36.491 248.391 36.9468C248.391 37.3944 248.269 37.728 248.024 37.9478C247.788 38.1675 247.504 38.2773 247.17 38.2773C246.82 38.2773 246.527 38.1675 246.291 37.9478C246.063 37.728 245.949 37.3944 245.949 36.9468C245.949 36.491 246.063 36.1574 246.291 35.9458C246.527 35.7261 246.82 35.6162 247.17 35.6162ZM256.777 52.584C257.111 52.584 257.452 52.5555 257.802 52.4985C258.152 52.4416 258.437 52.3724 258.657 52.291V53.8657C258.421 53.9715 258.091 54.061 257.668 54.1343C257.253 54.2075 256.846 54.2441 256.447 54.2441C255.739 54.2441 255.096 54.1221 254.519 53.8779C253.941 53.6257 253.477 53.2025 253.127 52.6084C252.785 52.0143 252.614 51.1924 252.614 50.1426V42.208H250.71V41.2192L252.626 40.4258L253.432 37.5205H254.653V40.6211H258.571V42.208H254.653V50.0815C254.653 50.9198 254.844 51.5464 255.227 51.9614C255.617 52.3765 256.134 52.584 256.777 52.584ZM266.372 40.4014C267.967 40.4014 269.151 40.7594 269.924 41.4756C270.697 42.1917 271.083 43.3351 271.083 44.9058V54H269.606L269.216 52.0225H269.118C268.744 52.5107 268.353 52.9217 267.946 53.2554C267.539 53.5809 267.067 53.8291 266.53 54C266.001 54.1628 265.35 54.2441 264.577 54.2441C263.763 54.2441 263.039 54.1017 262.404 53.8169C261.778 53.5321 261.281 53.1007 260.915 52.5229C260.557 51.9451 260.378 51.2127 260.378 50.3257C260.378 48.991 260.907 47.9657 261.965 47.2495C263.023 46.5334 264.634 46.1427 266.799 46.0776L269.106 45.98V45.1621C269.106 44.0065 268.858 43.1968 268.361 42.7329C267.865 42.269 267.165 42.0371 266.262 42.0371C265.562 42.0371 264.895 42.1388 264.26 42.3423C263.625 42.5457 263.023 42.7858 262.453 43.0625L261.831 41.5244C262.433 41.2152 263.125 40.9507 263.906 40.731C264.687 40.5112 265.509 40.4014 266.372 40.4014ZM269.082 47.4082L267.043 47.4937C265.375 47.5588 264.199 47.8314 263.515 48.3115C262.832 48.7917 262.49 49.4712 262.49 50.3501C262.49 51.1151 262.722 51.6807 263.186 52.0469C263.649 52.4131 264.264 52.5962 265.029 52.5962C266.217 52.5962 267.189 52.2666 267.946 51.6074C268.703 50.9482 269.082 49.9595 269.082 48.6411V47.4082ZM269.716 34.8472V35.0913C269.554 35.3273 269.33 35.6121 269.045 35.9458C268.768 36.2713 268.459 36.6172 268.117 36.9834C267.775 37.3415 267.43 37.6833 267.08 38.0088C266.738 38.3343 266.42 38.6151 266.127 38.8511H264.772V38.5581C265.033 38.2489 265.318 37.8786 265.627 37.4473C265.936 37.0078 266.237 36.5602 266.53 36.1045C266.823 35.6406 267.067 35.2215 267.263 34.8472H269.716ZM281.337 40.377C281.606 40.377 281.887 40.3932 282.18 40.4258C282.473 40.4502 282.733 40.4868 282.961 40.5356L282.705 42.4155C282.485 42.3586 282.241 42.3138 281.972 42.2812C281.704 42.2487 281.451 42.2324 281.215 42.2324C280.678 42.2324 280.17 42.3423 279.689 42.562C279.217 42.7736 278.802 43.0828 278.444 43.4897C278.086 43.8885 277.806 44.3727 277.602 44.9424C277.399 45.5039 277.297 46.1305 277.297 46.8223V54H275.258V40.6211H276.943L277.163 43.0869H277.248C277.525 42.5905 277.858 42.1388 278.249 41.7319C278.64 41.3169 279.091 40.9873 279.604 40.7432C280.125 40.499 280.703 40.377 281.337 40.377ZM287.514 40.6211V54H285.488V40.6211H287.514ZM286.525 35.6162C286.859 35.6162 287.144 35.7261 287.38 35.9458C287.624 36.1574 287.746 36.491 287.746 36.9468C287.746 37.3944 287.624 37.728 287.38 37.9478C287.144 38.1675 286.859 38.2773 286.525 38.2773C286.175 38.2773 285.882 38.1675 285.646 37.9478C285.419 37.728 285.305 37.3944 285.305 36.9468C285.305 36.491 285.419 36.1574 285.646 35.9458C285.882 35.7261 286.175 35.6162 286.525 35.6162ZM296.816 40.4014C298.411 40.4014 299.595 40.7594 300.368 41.4756C301.141 42.1917 301.528 43.3351 301.528 44.9058V54H300.051L299.66 52.0225H299.562C299.188 52.5107 298.798 52.9217 298.391 53.2554C297.984 53.5809 297.512 53.8291 296.975 54C296.446 54.1628 295.795 54.2441 295.021 54.2441C294.208 54.2441 293.483 54.1017 292.849 53.8169C292.222 53.5321 291.726 53.1007 291.359 52.5229C291.001 51.9451 290.822 51.2127 290.822 50.3257C290.822 48.991 291.351 47.9657 292.409 47.2495C293.467 46.5334 295.078 46.1427 297.243 46.0776L299.55 45.98V45.1621C299.55 44.0065 299.302 43.1968 298.806 42.7329C298.309 42.269 297.609 42.0371 296.706 42.0371C296.006 42.0371 295.339 42.1388 294.704 42.3423C294.069 42.5457 293.467 42.7858 292.897 43.0625L292.275 41.5244C292.877 41.2152 293.569 40.9507 294.35 40.731C295.131 40.5112 295.953 40.4014 296.816 40.4014ZM299.526 47.4082L297.487 47.4937C295.819 47.5588 294.643 47.8314 293.959 48.3115C293.276 48.7917 292.934 49.4712 292.934 50.3501C292.934 51.1151 293.166 51.6807 293.63 52.0469C294.094 52.4131 294.708 52.5962 295.473 52.5962C296.661 52.5962 297.634 52.2666 298.391 51.6074C299.147 50.9482 299.526 49.9595 299.526 48.6411V47.4082ZM314.357 50.3379C314.357 51.1924 314.142 51.9126 313.71 52.4985C313.287 53.0763 312.677 53.5117 311.879 53.8047C311.09 54.0977 310.146 54.2441 309.047 54.2441C308.111 54.2441 307.302 54.1709 306.618 54.0244C305.935 53.8779 305.336 53.6704 304.824 53.4019V51.5342C305.369 51.8027 306.02 52.0469 306.777 52.2666C307.534 52.4863 308.307 52.5962 309.096 52.5962C310.252 52.5962 311.09 52.409 311.611 52.0347C312.132 51.6603 312.392 51.1517 312.392 50.5088C312.392 50.1426 312.286 49.8211 312.075 49.5444C311.871 49.2596 311.525 48.987 311.037 48.7266C310.549 48.458 309.873 48.165 309.011 47.8477C308.156 47.5221 307.416 47.2007 306.789 46.8833C306.171 46.5578 305.69 46.1631 305.349 45.6992C305.015 45.2354 304.848 44.6331 304.848 43.8926C304.848 42.7614 305.304 41.8947 306.215 41.2925C307.135 40.6821 308.339 40.377 309.829 40.377C310.634 40.377 311.387 40.4583 312.087 40.6211C312.795 40.7757 313.454 40.9873 314.064 41.2559L313.381 42.8794C312.827 42.6434 312.237 42.444 311.611 42.2812C310.984 42.1185 310.345 42.0371 309.694 42.0371C308.758 42.0371 308.038 42.1917 307.534 42.501C307.037 42.8102 306.789 43.2334 306.789 43.7705C306.789 44.1855 306.903 44.5273 307.131 44.7959C307.367 45.0645 307.741 45.3167 308.254 45.5527C308.767 45.7887 309.442 46.0654 310.28 46.3828C311.118 46.6921 311.843 47.0135 312.453 47.3472C313.063 47.6727 313.531 48.0715 313.857 48.5435C314.191 49.0073 314.357 49.6055 314.357 50.3379ZM317.312 52.7305C317.312 52.1608 317.45 51.758 317.727 51.522C318.003 51.2778 318.341 51.1558 318.74 51.1558C319.155 51.1558 319.505 51.2778 319.79 51.522C320.074 51.758 320.217 52.1608 320.217 52.7305C320.217 53.292 320.074 53.703 319.79 53.9634C319.505 54.2157 319.155 54.3418 318.74 54.3418C318.341 54.3418 318.003 54.2157 317.727 53.9634C317.45 53.703 317.312 53.292 317.312 52.7305Z" fill="#132235" fill-opacity="0.9"/>
</svg>
