<svg width="260" height="90" viewBox="0 0 260 90" fill="none" xmlns="http://www.w3.org/2000/svg">
<path d="M216.006 89.5794H158.629L156.069 39.1399H216.006V89.5794Z" fill="#DBDBDB"/>
<path d="M216.006 39.1399L236.617 13.336L253.019 39.1399L250.459 89.5794H216.006V39.1399Z" fill="#C7C7C7"/>
<path d="M176.096 5.14279H237.345L259.436 41.1802H252.323L237.345 16.2324L220.071 44.1566H151.012L176.096 5.14279Z" fill="#A6A6A6"/>
<path d="M183.193 16.5445H170.023L162.998 24.9617H178.2L183.193 16.5445Z" fill="#C7C7C7"/>
<path d="M173.215 23.5215V33.7711H165.886V23.5215L169.551 18.9368L173.215 23.5215Z" fill="#DBDBDB"/>
<path d="M173.215 23.5135H178.976L173.215 33.7711V23.5135Z" fill="#C7C7C7"/>
<path d="M171.447 23.6816H167.279V30.7146H171.447V23.6816Z" fill="#FBFAFF"/>
<path d="M169.135 24.1696H167.791V26.4339H169.135V24.1696Z" fill="#EBEBEB"/>
<path d="M170.927 24.1696H169.583V26.4339H170.927V24.1696Z" fill="#EBEBEB"/>
<path d="M169.135 26.842H167.791V30.1945H169.135V26.842Z" fill="#EBEBEB"/>
<path d="M170.927 26.842H169.583V30.1945H170.927V26.842Z" fill="#EBEBEB"/>
<path d="M215.438 16.5445H202.268L195.675 24.9617H210.413L215.438 16.5445Z" fill="#C7C7C7"/>
<path d="M205.46 23.5215V33.7711H198.131V23.5215L201.795 18.9368L205.46 23.5215Z" fill="#DBDBDB"/>
<path d="M205.46 23.5135H211.229L205.46 33.7711V23.5135Z" fill="#C7C7C7"/>
<path d="M203.692 23.6816H199.523V30.7146H203.692V23.6816Z" fill="#FBFAFF"/>
<path d="M201.379 24.1696H200.035V26.4339H201.379V24.1696Z" fill="#EBEBEB"/>
<path d="M203.18 24.1696H201.835V26.4339H203.18V24.1696Z" fill="#EBEBEB"/>
<path d="M201.379 26.842H200.035V30.1945H201.379V26.842Z" fill="#EBEBEB"/>
<path d="M203.18 26.842H201.835V30.1945H203.18V26.842Z" fill="#EBEBEB"/>
<path d="M226.359 3.68655H219.03V13.336H226.359V3.68655Z" fill="#DBDBDB"/>
<path d="M226.359 3.68655H232.12V5.23879L226.359 13.336V3.68655Z" fill="#C7C7C7"/>
<path d="M226.359 0.406067H218.206V3.68656H226.359V0.406067Z" fill="#C7C7C7"/>
<path d="M232.752 0.406067H226.359V3.68656H232.752V0.406067Z" fill="#A6A6A6"/>
<path d="M173.768 48.2852H164.694V63.6075H173.768V48.2852Z" fill="#FBFAFF"/>
<path d="M168.735 49.3494H165.814V54.2861H168.735V49.3494Z" fill="#EBEBEB"/>
<path d="M172.648 49.3494H169.727V54.2861H172.648V49.3494Z" fill="#EBEBEB"/>
<path d="M168.735 55.1743H165.814V62.4874H168.735V55.1743Z" fill="#EBEBEB"/>
<path d="M172.648 55.1743H169.727V62.4874H172.648V55.1743Z" fill="#EBEBEB"/>
<path d="M207.469 48.2852H198.396V63.6075H207.469V48.2852Z" fill="#FBFAFF"/>
<path d="M202.436 49.3494H199.515V54.2861H202.436V49.3494Z" fill="#EBEBEB"/>
<path d="M206.348 49.3494H203.428V54.2861H206.348V49.3494Z" fill="#EBEBEB"/>
<path d="M202.436 55.1743H199.515V62.4874H202.436V55.1743Z" fill="#EBEBEB"/>
<path d="M206.348 55.1743H203.428V62.4874H206.348V55.1743Z" fill="#EBEBEB"/>
<path d="M173.768 69.5764H164.694V84.8987H173.768V69.5764Z" fill="#FBFAFF"/>
<path d="M168.735 70.6405H165.814V75.5773H168.735V70.6405Z" fill="#EBEBEB"/>
<path d="M172.648 70.6405H169.727V75.5773H172.648V70.6405Z" fill="#EBEBEB"/>
<path d="M168.735 76.4654H165.814V83.7785H168.735V76.4654Z" fill="#EBEBEB"/>
<path d="M172.648 76.4654H169.727V83.7785H172.648V76.4654Z" fill="#EBEBEB"/>
<path d="M207.469 69.5764H198.396V84.8987H207.469V69.5764Z" fill="#FBFAFF"/>
<path d="M202.436 70.6405H199.515V75.5773H202.436V70.6405Z" fill="#EBEBEB"/>
<path d="M206.348 70.6405H203.428V75.5773H206.348V70.6405Z" fill="#EBEBEB"/>
<path d="M202.436 76.4654H199.515V83.7785H202.436V76.4654Z" fill="#EBEBEB"/>
<path d="M206.348 76.4654H203.428V83.7785H206.348V76.4654Z" fill="#EBEBEB"/>
<path d="M190.57 48.2852H181.497V63.6075H190.57V48.2852Z" fill="#FBFAFF"/>
<path d="M185.538 49.3494H182.617V54.2861H185.538V49.3494Z" fill="#EBEBEB"/>
<path d="M189.458 49.3494H186.537V54.2861H189.458V49.3494Z" fill="#EBEBEB"/>
<path d="M185.538 55.1743H182.617V62.4874H185.538V55.1743Z" fill="#EBEBEB"/>
<path d="M189.458 55.1743H186.537V62.4874H189.458V55.1743Z" fill="#EBEBEB"/>
<path d="M190.57 69.6804H181.497V85.0027H190.57V69.6804Z" fill="#FBFAFF"/>
<path d="M185.538 70.7366H182.617V75.6733H185.538V70.7366Z" fill="#EBEBEB"/>
<path d="M189.458 70.7366H186.537V75.6733H189.458V70.7366Z" fill="#EBEBEB"/>
<path d="M185.538 76.5695H182.617V83.8826H185.538V76.5695Z" fill="#EBEBEB"/>
<path d="M189.458 76.5695H186.537V83.8826H189.458V76.5695Z" fill="#EBEBEB"/>
<path d="M232.312 63.6075H241.386V48.2852H232.312V63.6075Z" fill="#FBFAFF"/>
<path d="M240.265 49.3494H237.345V54.2861H240.265V49.3494Z" fill="#EBEBEB"/>
<path d="M236.345 49.3494H233.425V54.2861H236.345V49.3494Z" fill="#EBEBEB"/>
<path d="M240.265 55.1743H237.345V62.4874H240.265V55.1743Z" fill="#EBEBEB"/>
<path d="M236.345 55.1743H233.425V62.4874H236.345V55.1743Z" fill="#EBEBEB"/>
<path d="M232.312 39.924H241.386V26.9541H232.312V39.924Z" fill="#FBFAFF"/>
<path d="M240.265 28.0102H237.345V32.9469H240.265V28.0102Z" fill="#EBEBEB"/>
<path d="M236.345 28.0102H233.425V32.9469H236.345V28.0102Z" fill="#EBEBEB"/>
<path d="M240.265 33.8911H237.345V38.8278H240.265V33.8911Z" fill="#EBEBEB"/>
<path d="M236.345 33.8911H233.425V38.8278H236.345V33.8911Z" fill="#EBEBEB"/>
<path d="M231.021 89.6732L242.022 89.7251L242.117 69.7463L231.115 69.6945L231.021 89.6732Z" fill="#FBFAFF"/>
<path d="M235.416 71.0777L235.402 74.0702L237.77 74.0813L237.784 71.0889L235.416 71.0777Z" fill="#EBEBEB"/>
<path d="M232.321 71.0616L232.307 74.054L234.675 74.0652L234.69 71.0728L232.321 71.0616Z" fill="#EBEBEB"/>
<path d="M234.042 84.9349L239.042 84.9585L239.046 84.2384L234.045 84.2148L234.042 84.9349Z" fill="#EBEBEB"/>
<path d="M236.897 69.5524V72.5449H239.265V69.5524H236.897Z" fill="#EBEBEB"/>
<path d="M235.408 74.8561L235.394 77.8485L237.762 77.8597L237.776 74.8673L235.408 74.8561Z" fill="#EBEBEB"/>
<path d="M232.289 74.832L232.274 77.8244L234.643 77.8356L234.657 74.8432L232.289 74.832Z" fill="#EBEBEB"/>
<path d="M238.511 74.8722L238.497 77.8646L240.865 77.8758L240.879 74.8834L238.511 74.8722Z" fill="#EBEBEB"/>
<path d="M235.392 78.6425L235.377 81.6349L237.746 81.6461L237.76 78.6537L235.392 78.6425Z" fill="#EBEBEB"/>
<path d="M232.281 78.6264L232.267 81.6188L234.635 81.63L234.649 78.6376L232.281 78.6264Z" fill="#EBEBEB"/>
<path d="M238.495 78.6587L238.481 81.6511L240.849 81.6622L240.863 78.6698L238.495 78.6587Z" fill="#EBEBEB"/>
<path d="M58.0941 89.7155H7.12654L4.84619 65.0157H58.0941V89.7155Z" fill="#DBDBDB"/>
<path d="M58.0786 64.9837L76.3854 42.0683L90.9635 64.9837L88.6832 89.6834H58.0786V64.9837Z" fill="#C7C7C7"/>
<path d="M22.3369 34.8192H77.6971L98.2042 69.4724H92.6114L76.945 43.3885L61.8948 69.4724H0.557617L22.3369 34.8192Z" fill="#A6A6A6"/>
<path d="M20.6966 74.1851H12.6313V85.7068H20.6966V74.1851Z" fill="#FBFAFF"/>
<path d="M16.2159 75.1292H13.6235V79.5139H16.2159V75.1292Z" fill="#DBDBDB"/>
<path d="M19.6964 75.1292H17.104V79.5139H19.6964V75.1292Z" fill="#DBDBDB"/>
<path d="M16.2159 80.346H13.6235V84.7307H16.2159V80.346Z" fill="#DBDBDB"/>
<path d="M19.6964 80.346H17.104V84.7307H19.6964V80.346Z" fill="#DBDBDB"/>
<path d="M50.3172 74.1851H42.252V85.7068H50.3172V74.1851Z" fill="#FBFAFF"/>
<path d="M45.8365 75.1292H43.2441V79.5139H45.8365V75.1292Z" fill="#DBDBDB"/>
<path d="M49.317 75.1292H46.7246V79.5139H49.317V75.1292Z" fill="#DBDBDB"/>
<path d="M45.8365 80.346H43.2441V84.7307H45.8365V80.346Z" fill="#DBDBDB"/>
<path d="M49.317 80.346H46.7246V84.7307H49.317V80.346Z" fill="#DBDBDB"/>
<path d="M35.5549 73.569H26.6655V89.7155H35.5549V73.569Z" fill="#FBFAFF"/>
<path d="M32.0661 74.6812H30.1538V77.0975H32.0661V74.6812Z" fill="#DBDBDB"/>
<path d="M34.5788 74.6812H32.6665V77.0975H34.5788V74.6812Z" fill="#DBDBDB"/>
<path d="M33.1304 85.2828H29.0898V85.8668H33.1304V85.2828Z" fill="#DBDBDB"/>
<path d="M29.5539 74.6812H27.6416V77.0975H29.5539V74.6812Z" fill="#DBDBDB"/>
<path d="M32.0661 77.7376H30.1538V80.154H32.0661V77.7376Z" fill="#DBDBDB"/>
<path d="M34.5788 77.7376H32.6665V80.154H34.5788V77.7376Z" fill="#DBDBDB"/>
<path d="M29.5539 77.7376H27.6416V80.154H29.5539V77.7376Z" fill="#DBDBDB"/>
<path d="M32.0661 80.7941H30.1538V83.2104H32.0661V80.7941Z" fill="#DBDBDB"/>
<path d="M34.5788 80.7941H32.6665V83.2104H34.5788V80.7941Z" fill="#DBDBDB"/>
<path d="M29.5539 80.7941H27.6416V83.2104H29.5539V80.7941Z" fill="#DBDBDB"/>
<path d="M34.0506 33.435H27.5376V42.0043H34.0506V33.435Z" fill="#DBDBDB"/>
<path d="M34.0503 33.435H39.1711V34.8112L34.0503 42.0043V33.435Z" fill="#C7C7C7"/>
<path d="M34.0507 30.5146H26.8096V33.427H34.0507V30.5146Z" fill="#C7C7C7"/>
<path d="M39.7311 30.5146H34.0503V33.427H39.7311V30.5146Z" fill="#A6A6A6"/>
<path d="M78.2412 89.7234H94.7717L96.3479 72.6889H78.2412V89.7234Z" fill="#C7C7C7"/>
<path d="M78.241 72.6889L70.0718 69.0003L70.2558 89.7234H78.241V72.6889Z" fill="#DBDBDB"/>
<path d="M90.8993 77.0975H83.9463V89.7154H90.8993V77.0975Z" fill="#FBFAFF"/>
<path d="M88.171 77.9617H86.6748V79.8499H88.171V77.9617Z" fill="#DBDBDB"/>
<path d="M90.131 77.9617H88.6348V79.8499H90.131V77.9617Z" fill="#DBDBDB"/>
<path d="M89.0028 85.4028H85.8423V85.8588H89.0028V85.4028Z" fill="#DBDBDB"/>
<path d="M86.2101 77.9617H84.7139V79.8499H86.2101V77.9617Z" fill="#DBDBDB"/>
<path d="M68.8237 68.1522H92.8433L100.604 74.0571H77.545L68.8237 68.1522Z" fill="#A6A6A6"/>
<path d="M77.545 74.0571H68.8237V68.1522L77.545 74.0571Z" fill="#C7C7C7"/>
<path d="M72.3843 59.5189C72.3843 60.3342 72.6262 61.1312 73.0793 61.809C73.5324 62.4868 74.1764 63.015 74.9299 63.3266C75.6833 63.6383 76.5122 63.7194 77.3117 63.5597C78.1113 63.4001 78.8455 63.0069 79.4214 62.4298C79.9974 61.8527 80.3892 61.1177 80.5473 60.3179C80.7054 59.518 80.6227 58.6893 80.3095 57.9365C79.9964 57.1837 79.467 56.5407 78.7884 56.0888C78.1097 55.637 77.3122 55.3967 76.4969 55.3983C75.4054 55.4004 74.3594 55.8355 73.5884 56.608C72.8173 57.3806 72.3843 58.4274 72.3843 59.5189V59.5189Z" fill="#FBFAFF"/>
<path d="M73.3047 59.5189C73.3047 60.3677 73.6419 61.1818 74.2421 61.782C74.8423 62.3822 75.6563 62.7194 76.5052 62.7194C76.7754 62.7213 77.0446 62.6863 77.3053 62.6153C78.0506 62.413 78.6976 61.9481 79.127 61.3062C79.5563 60.6643 79.7392 59.8888 79.6417 59.1227C79.5442 58.3567 79.173 57.6517 78.5966 57.1377C78.0202 56.6238 77.2774 56.3357 76.5052 56.3264C76.235 56.3252 75.9659 56.3602 75.705 56.4304C75.3327 56.5208 74.9819 56.684 74.6729 56.9105C74.2526 57.204 73.909 57.594 73.6709 58.0479C73.4328 58.5019 73.3072 59.0063 73.3047 59.5189Z" fill="#C7C7C7"/>
<path d="M76.0567 63.2794H76.9448V55.6943H76.0567V63.2794Z" fill="#FBFAFF"/>
<path d="M80.2974 59.927V59.0388H72.7122V59.927H80.2974Z" fill="#FBFAFF"/>
<path d="M101.796 89.7234H76.0405L74.2803 70.6725H101.796V89.7234Z" fill="#6DDAD3"/>
<path opacity="0.2" d="M101.796 89.7234H76.0405L74.2803 70.6725H101.796V89.7234Z" fill="black"/>
<path d="M101.797 70.6725L115.919 52.9899L127.161 70.6725L125.408 89.7234H101.797V70.6725Z" fill="#6DDAD3"/>
<path d="M103.501 73.0009H68.5518L89.8109 46.2689H116.063L131.841 73.0009H127.833L116.063 54.6862L103.501 73.0009Z" fill="#6DDAD3"/>
<path opacity="0.4" d="M103.501 73.0009H68.5518L89.8109 46.2689H116.063L131.841 73.0009H127.833L116.063 54.6862L103.501 73.0009Z" fill="black"/>
<path d="M138.77 22.6254H131.489V32.2108H138.77V22.6254Z" fill="#6DDAD3"/>
<path opacity="0.2" d="M138.77 22.6254H131.489V32.2108H138.77V22.6254Z" fill="black"/>
<path d="M144.499 22.6254H138.77V32.2108H144.499V22.6254Z" fill="#6DDAD3"/>
<path d="M138.771 19.3609H130.673V22.6174H138.771V19.3609Z" fill="#6DDAD3"/>
<path opacity="0.5" d="M138.771 19.3609H130.673V22.6174H138.771V19.3609Z" fill="black"/>
<path d="M145.123 19.3609H138.77V22.6174H145.123V19.3609Z" fill="#6DDAD3"/>
<path opacity="0.4" d="M145.123 19.3609H138.77V22.6174H145.123V19.3609Z" fill="black"/>
<path d="M164.358 89.6994H107.35L104.797 62.0713H164.358V89.6994Z" fill="#6DDAD3"/>
<path opacity="0.2" d="M164.358 89.6994H107.35L104.797 62.0713H164.358V89.6994Z" fill="#3A3A3A"/>
<path d="M164.358 62.0713L184.833 36.4275L201.139 62.0713L198.587 89.6994H164.358V62.0713Z" fill="#6DDAD3"/>
<path d="M184.585 38.0517L201.419 64.0876H207.3L185.089 28.2902H124.448L93.7231 67.056H167.79L184.585 38.0517Z" fill="#6DDAD3"/>
<path opacity="0.5" d="M184.585 38.0517L201.419 64.0876H207.3L185.089 28.2902H124.448L93.7231 67.056H167.79L184.585 38.0517Z" fill="black"/>
<path d="M179.512 65.9518H188.529V53.0619H179.512V65.9518Z" fill="#FBFAFF"/>
<path d="M187.418 54.1101H184.513V59.0148H187.418V54.1101Z" fill="#6DDAD3"/>
<path d="M183.529 54.1101H180.625V59.0148H183.529V54.1101Z" fill="#6DDAD3"/>
<path d="M187.418 59.951H184.513V64.8557H187.418V59.951Z" fill="#6DDAD3"/>
<path d="M183.529 59.951H180.625V64.8557H183.529V59.951Z" fill="#6DDAD3"/>
<path d="M122.52 72.3208H113.502V85.2107H122.52V72.3208Z" fill="#FBFAFF"/>
<path d="M117.519 73.377H114.615V78.2817H117.519V73.377Z" fill="#6DDAD3"/>
<path d="M121.416 73.377H118.511V78.2817H121.416V73.377Z" fill="#6DDAD3"/>
<path d="M117.519 79.2178H114.615V84.1226H117.519V79.2178Z" fill="#6DDAD3"/>
<path d="M121.416 79.2178H118.511V84.1226H121.416V79.2178Z" fill="#6DDAD3"/>
<path d="M139.09 72.3208H130.073V85.2107H139.09V72.3208Z" fill="#FBFAFF"/>
<path d="M134.082 73.377H131.177V78.2817H134.082V73.377Z" fill="#6DDAD3"/>
<path d="M137.978 73.377H135.074V78.2817H137.978V73.377Z" fill="#6DDAD3"/>
<path d="M134.082 79.2178H131.177V84.1226H134.082V79.2178Z" fill="#6DDAD3"/>
<path d="M137.978 79.2178H135.074V84.1226H137.978V79.2178Z" fill="#6DDAD3"/>
<path d="M155.653 72.3208H146.635V85.2107H155.653V72.3208Z" fill="#FBFAFF"/>
<path d="M150.652 73.377H147.748V78.2817H150.652V73.377Z" fill="#6DDAD3"/>
<path d="M154.541 73.377H151.636V78.2817H154.541V73.377Z" fill="#6DDAD3"/>
<path d="M150.652 79.2178H147.748V84.1226H150.652V79.2178Z" fill="#6DDAD3"/>
<path d="M154.541 79.2178H151.636V84.1226H154.541V79.2178Z" fill="#6DDAD3"/>
<path d="M179.048 89.6914H188.994V71.6327H179.048V89.6914Z" fill="#FBFAFF"/>
<path d="M185.097 72.8809H182.953V75.5853H185.097V72.8809Z" fill="#6DDAD3"/>
<path d="M182.289 72.8809H180.145V75.5853H182.289V72.8809Z" fill="#6DDAD3"/>
<path d="M181.761 85.3947H186.282V84.7387H181.761V85.3947Z" fill="#6DDAD3"/>
<path d="M187.898 72.8809H185.753V75.5853H187.898V72.8809Z" fill="#6DDAD3"/>
<path d="M185.097 76.2974H182.953V79.0018H185.097V76.2974Z" fill="#6DDAD3"/>
<path d="M182.289 76.2974H180.145V79.0018H182.289V76.2974Z" fill="#6DDAD3"/>
<path d="M187.898 76.2974H185.753V79.0018H187.898V76.2974Z" fill="#6DDAD3"/>
<path d="M185.097 79.7139H182.953V82.4183H185.097V79.7139Z" fill="#6DDAD3"/>
<path d="M182.289 79.7139H180.145V82.4183H182.289V79.7139Z" fill="#6DDAD3"/>
<path d="M187.898 79.7139H185.753V82.4183H187.898V79.7139Z" fill="#6DDAD3"/>
<path d="M147.923 37.5716H134.833L128.104 45.9729H142.923L147.923 37.5716Z" fill="#6DDAD3"/>
<path opacity="0.4" d="M147.923 37.5716H134.833L128.104 45.9729H142.923L147.923 37.5716Z" fill="black"/>
<path d="M138.01 44.5007V54.6862H130.721V44.5007L134.369 39.948L138.01 44.5007Z" fill="#6DDAD3"/>
<path opacity="0.2" d="M138.01 44.5007V54.6862H130.721V44.5007L134.369 39.948L138.01 44.5007Z" fill="black"/>
<path d="M138.01 44.5007H143.739L138.01 54.6862V44.5007Z" fill="#6DDAD3"/>
<path d="M136.242 44.6607H132.105V51.6457H136.242V44.6607Z" fill="#FBFAFF"/>
<path d="M133.953 45.1407H132.617V47.3891H133.953V45.1407Z" fill="#6DDAD3"/>
<path d="M135.738 45.1407H134.402V47.3891H135.738V45.1407Z" fill="#6DDAD3"/>
<path d="M133.953 47.8052H132.617V51.1417H133.953V47.8052Z" fill="#6DDAD3"/>
<path d="M135.738 47.8052H134.402V51.1417H135.738V47.8052Z" fill="#6DDAD3"/>
</svg>
